<svg xmlns="http://www.w3.org/2000/svg" viewBox="0 0 70.66 60.22"><defs><style>.cls-1{fill:#f0f8ff;}.cls-2{fill:#cfe7f9;}.cls-3{fill:#552b19;}.cls-4{fill:#421f13;}.cls-5{fill:#2ca899;}.cls-6{fill:#39bfb1;}.cls-7{fill:#a29cdb;}.cls-8{fill:#ffa60e;}.cls-9{fill:#618bf0;}.cls-10{fill:#171726;}.cls-11{fill:#f6e0d5;}.cls-12{fill:#fce6d9;}.cls-13{fill:#a8a8a8;}.cls-14{fill:#cbccd1;}.cls-15{fill:#bdbec1;}.cls-16{fill:#b8b9bc;}.cls-17{fill:#c4c5c6;}.cls-18{fill:#fbb99d;}.cls-19{fill:#53424d;}.cls-20{fill:#dc8162;}.cls-21{fill:#1e100c;}.cls-22{fill:#513d38;}.cls-23{fill:#faffff;}.cls-24{fill:#f3a498;}.cls-25{fill:#fb8245;}.cls-26{fill:#fea603;}.cls-27{fill:#94b8ed;}.cls-28{fill:#b3d0ff;}.cls-29{fill:#cc8c71;}.cls-30{fill:#fdfefd;}.cls-31{fill:#bf7c64;}.cls-32{fill:#e08b03;}.cls-33{fill:#2f7edd;}.cls-34{fill:#c1775d;}.cls-35{fill:#fff;}</style></defs><g id="Layer_2" data-name="Layer 2"><g id="Layer_1-2" data-name="Layer 1"><path class="cls-1" d="M17.09,51.54S-4.44,29.15.83,20.63c6.12-9.9,16.26,0,16.26,0Z"/><path class="cls-1" d="M17.3,50.83S6.31,3.59,26.46.37c23.78-3.8,20.73,23.14,20.73,23.14s10-10.47,17-4.77c9.67,7.91-6.12,33.1-6.12,33.1Z"/><ellipse class="cls-2" cx="38.87" cy="52.73" rx="31.79" ry="2.29"/><path class="cls-3" d="M66,48.41c.06,0,1.86,4.25.46,4.32s-2.24-3.94-2.24-3.94Z"/><path class="cls-4" d="M59.73,48.41c.07,0,1.86,4.25.46,4.32S58,48.79,58,48.79Z"/><path class="cls-5" d="M67.48,31.88c-.26,0-9.76.49-10.73,1.64S58,48.84,59.15,49.78s8.51.59,8.51.59Z"/><path class="cls-5" d="M45.22,43.43s7.52-16-2.14-19.24c-10.14-3.44-33.33-2.1-36,0S14,41.49,15.53,43.43Z"/><path class="cls-6" d="M56.23,43s10.24-17.14-2.37-19.24-37-2.1-40,0,7.7,17.3,9.41,19.24Z"/><path class="cls-3" d="M21.3,48.41c-.07,0-1.86,4.25-.46,4.32s2.24-3.94,2.24-3.94Z"/><path class="cls-4" d="M14,48.54c-.06,0-1.77,4.05-.44,4.12s2.14-3.76,2.14-3.76Z"/><path class="cls-6" d="M70.22,34a2.68,2.68,0,0,0-1.83-2,1.5,1.5,0,0,0-1.62.26c-2,2.38-.61,18.19-.61,18.19l3.92-.06S71.28,38.53,70.22,34Z"/><polygon class="cls-5" points="63.18 41.71 22.77 41.2 20.77 50.43 64.79 50.43 63.18 41.71"/><path class="cls-5" d="M69.21,50.33c.28-2.31.47-4.63.6-6.95.17-3,.58-6.59-.46-9.45-.48-1.31-1.61-1.85-2.27-.37-1.12,2.51-.71,6-.62,8.7s.32,5.41.54,8.12c0,.17.28.17.27,0-.37-4.64-.88-9.35-.47-14,.08-.85.11-2.53.79-3.2,1-1,1.54.81,1.71,1.56a32.6,32.6,0,0,1,.22,9c-.13,2.2-.31,4.41-.58,6.6,0,.17.25.17.27,0Z"/><path class="cls-7" d="M49.56,36.13a.74.74,0,0,0,1.48,0,.74.74,0,0,0-1.48,0c0,.16.24.16.25,0a.49.49,0,0,1,1,0,.49.49,0,0,1-1,0C49.8,36,49.55,36,49.56,36.13Z"/><path class="cls-8" d="M58.74,56a8.77,8.77,0,0,1,1,1.62c0,.86-2.29,2.51-3.38,2.59-.15,0-.4-.13-.33-.56s1.2-1.63.74-2.15S58.74,56,58.74,56Z"/><path class="cls-8" d="M46.35,52.27a8.7,8.7,0,0,1,.21,1.9c-.34.79-3.17,1.23-4.18.81-.14,0-.3-.29-.05-.64s1.81-.92,1.63-1.6S46.35,52.27,46.35,52.27Z"/><path class="cls-8" d="M30.55,50.69a8.28,8.28,0,0,0-.2,1.91c.34.79,3.16,1.23,4.17.81.14-.06.31-.3,0-.64s-1.8-.93-1.62-1.6S30.55,50.69,30.55,50.69Z"/><path class="cls-8" d="M37.06,46.22a8.41,8.41,0,0,0,.52,1.85c.61.61,3.4,0,4.18-.8.11-.11.17-.39-.19-.61s-2-.19-2.11-.88S37.06,46.22,37.06,46.22Z"/><path class="cls-9" d="M46.18,42s9.88-.27,11.42-.34c2.28-.09,2.92-.95,1.74-3.29-.8-1.6-14.72-2.28-16.21.36C41.3,42,46.18,42,46.18,42Z"/><path class="cls-9" d="M43.05,52.4c-.54-2.84-1.11-11.73.08-13.64s3.86,0,4,3.17c.07,2.07.23,9.09.14,11,0,.46-1.24.69-2,.65C45.26,53.58,43.21,53.22,43.05,52.4Z"/><path class="cls-9" d="M54.46,46.64s6.7-2.67,8-3.51a3.24,3.24,0,0,0,.16-5.51c-1.52-1-13.92,5.49-13.8,8.52C48.92,48.89,54.46,46.64,54.46,46.64Z"/><path class="cls-9" d="M55.66,57.94c-1.91-2.17-6.9-9.55-6.84-11.8.07-2.43,3.31-2,5,.72,1.11,1.75,4.8,7.72,5.69,9.41.21.41-.71,1.23-1.36,1.56C58.16,57.84,56.21,58.56,55.66,57.94Z"/><path class="cls-10" d="M55.09,40.36a2.58,2.58,0,0,0-1.86,1.43c-.08.16-.32,0-.24-.14a2.79,2.79,0,0,1,2.1-1.57c.18,0,.18.26,0,.28Z"/><path class="cls-11" d="M56.17,28.05s1.84-1,2.53-.32a2.15,2.15,0,0,1,.09,2.09,13.49,13.49,0,0,1-4.63,4.86c-.75.4-2.62-.78-1.88-2A23.71,23.71,0,0,1,56.17,28.05Z"/><path class="cls-12" d="M55.77,28.74c.71-1.93,4.19-1.16,6.56-.69,1.6.33,2.48,1.11,2.25,4.05-.08,1.16-.18,4.7-.82,6.45-.12.32-.61.59-.87.8-1.51,1.21-9.25-.47-8.85-2.26A32.8,32.8,0,0,1,55.77,28.74Z"/><polygon class="cls-13" points="46.34 39.94 55.58 42.39 60.36 40.34 46.54 36.27 46.34 39.94"/><polygon class="cls-14" points="46.37 39.45 55.67 41.92 60.45 39.87 46.63 35.8 46.37 39.45"/><polygon class="cls-15" points="46.36 39.58 54.49 41.7 58.7 39.9 46.53 36.32 46.36 39.58"/><polygon class="cls-16" points="55.58 42.39 55.12 42.57 46.34 39.94 46.31 32.24 55.08 34.6 55.58 42.39"/><polygon class="cls-14" points="55.12 42.57 46.34 39.94 45.63 32.37 54.65 34.72 55.12 42.57"/><polygon class="cls-16" points="60.45 39.87 60.36 40.34 55.58 42.39 55.59 41.9 60.45 39.87"/><polygon class="cls-17" points="54.65 34.72 55 34.57 46.31 32.24 45.63 32.37 54.65 34.72"/><path class="cls-18" d="M65.05,35c0,.3,1.16,3.4.5,4.17-.48.55-2.58-.45-2.58-.45s.79-.61-.41-3C61.55,33.67,65.05,35,65.05,35Z"/><path class="cls-18" d="M65.36,39.41c-1.19,1.17-5.84,3.08-5.84,3.08l.18-1.09,4.47-3.62S66.55,38.23,65.36,39.41Z"/><path class="cls-18" d="M59.81,41.13a1.73,1.73,0,0,1-.33-.17,1.82,1.82,0,0,0-.66-.15c-.13,0-.37-.19-.49-.08s.31.38.4.46a.25.25,0,0,1,.1.29.37.37,0,0,1-.16.14,6.14,6.14,0,0,1-.64.27l-.32.14c-.08,0-.21.06-.27.12a.12.12,0,0,0,0,.19s.11,0,.16,0l.39-.1s.15,0,.18,0-.21.23-.26.25a.73.73,0,0,0-.34.26,0,0,0,0,0,0,0s.05,0,.08,0,.34-.12.52-.15a.13.13,0,0,1,.09,0c.07.1-.13.23-.19.28S58,43,58,43.05a.08.08,0,0,0,.07.05.12.12,0,0,0,.1,0,1.48,1.48,0,0,0,.27-.1s.16-.09.2,0v0a.34.34,0,0,1-.07.11s-.06.08,0,.12.1,0,.15,0a1.83,1.83,0,0,0,.55-.25,4.86,4.86,0,0,0,.54-.33c.33-.23.61-.52,1-.72a.49.49,0,0,0,.15-.1.41.41,0,0,0,.12-.31.7.7,0,0,0-.22-.58c0-.05-.15-.15-.22-.14s-.11.09-.15.12l-.19.12A.7.7,0,0,1,59.81,41.13Z"/><path class="cls-11" d="M61.65,30.82c-.12-1.16.19-2.3,1.18-2.46a2.26,2.26,0,0,1,1.82,1.25,14.27,14.27,0,0,1,1.16,7c-.13.9-2.32,1.73-2.92.29A24,24,0,0,1,61.65,30.82Z"/><path class="cls-18" d="M61.7,28S60,30.38,57.93,29.71c-.94-.31-1-1.15-.23-1.69S61.7,28,61.7,28Z"/><path class="cls-19" d="M57.94,21.63a3,3,0,0,1,.82-.75,2.28,2.28,0,0,1,1.55-.32A2.88,2.88,0,0,1,62.69,23,3.19,3.19,0,0,1,62,25.31a2.68,2.68,0,0,1-2.13.91,2.35,2.35,0,0,1-1-.11,2.15,2.15,0,0,1-1-.83,3.29,3.29,0,0,1-.5-1.3A3.06,3.06,0,0,1,57.94,21.63Z"/><path class="cls-18" d="M57.34,28.38a5.12,5.12,0,0,0,1.07-2.66c0-.37.59-.4.47-.59s1.83-.51,1.83-.51-.34,2.23,1,3.41Z"/><path class="cls-20" d="M58.39,26c0-.45.49-.92.35-1.15S61,24.18,61,24.18a2.56,2.56,0,0,0-.41,1.18,4.25,4.25,0,0,1-2.3,1.23Z"/><path class="cls-18" d="M59.2,21.07c-.87.59-2.77,3.16-1.55,4.68.52.65,2.37.1,3.49-1.15a3.31,3.31,0,0,0,.3-2.93A1.52,1.52,0,0,0,59.2,21.07Z"/><path class="cls-19" d="M61.91,20.25a1.53,1.53,0,0,0-.56.45c-.13.19-.32.53-.23.77a2.86,2.86,0,0,0,.33.47c.09.13.15.29.25.43a3.1,3.1,0,0,0,.66.59.71.71,0,0,0,.72.05,1.55,1.55,0,0,0,1-.85c.18-.44-.13-.92-.4-1.27-.06-.08-.13-.16-.19-.25A1.29,1.29,0,0,0,62,20.21Z"/><path class="cls-19" d="M57.84,22.11c.11.3.2-.13.9-.3a1.24,1.24,0,0,1,.27,0,.56.56,0,0,1,.22,0,.34.34,0,0,1,.22.35,1.55,1.55,0,0,0,.32.88,2.14,2.14,0,0,1,.42.95,1.06,1.06,0,0,0,.05.31.84.84,0,0,1,.06.39c0,.12,0,.25-.07.37a.49.49,0,0,0,.14.46l.17.14a1.12,1.12,0,0,0,.43.16,1,1,0,0,0,.91-.39,2.69,2.69,0,0,0,.43-1.73,7.12,7.12,0,0,0-.12-1.23,1.85,1.85,0,0,0-.51-1,2.58,2.58,0,0,0-1.32-.7,2.83,2.83,0,0,0-.77-.05C58.38,20.83,57.75,21.87,57.84,22.11Z"/><path class="cls-18" d="M60.1,24.37s.72-.54,1.07-.33-.26,1.17-1,1S59.88,24.51,60.1,24.37Z"/><path class="cls-21" d="M59.39,24l0,0-.09,0c-.12,0-.18-.05-.22-.15s-.12,0-.1,0a.32.32,0,0,0,.51.14c.06,0,0-.11-.07-.08Z"/><path class="cls-21" d="M58.21,23.67a.39.39,0,0,1-.1.08c-.11.07-.19,0-.24-.1s-.13,0-.1,0,.17.23.32.19a.45.45,0,0,0,.21-.15c.05-.05,0-.11-.09-.06Z"/><path class="cls-22" d="M58,23.14a.33.33,0,0,1,.41.18c0,.08.15,0,.11-.07a.46.46,0,0,0-.56-.24.07.07,0,0,0,0,.13Z"/><path class="cls-22" d="M59.05,23.47a.33.33,0,0,1,.45.07c0,.06.14,0,.09-.1a.47.47,0,0,0-.61-.08c-.07.05,0,.16.07.11Z"/><path class="cls-20" d="M58.61,23.54a.63.63,0,0,1,0,.36c0,.17-.24.25-.34.39s0,.3.23.37c.05,0,.08-.06,0-.07-.52-.15.09-.42.17-.64a.7.7,0,0,0,0-.43c0-.05-.11,0-.09,0Z"/><path class="cls-23" d="M58.94,24.88s0,.46-.34.46-.41-.41-.41-.41Z"/><path class="cls-24" d="M59.67,24.73a.26.26,0,0,1-.33.16.26.26,0,0,1,.17-.49A.27.27,0,0,1,59.67,24.73Z"/><path class="cls-24" d="M57.61,24.28a.26.26,0,0,1,.32.4.27.27,0,0,1-.37,0A.26.26,0,0,1,57.61,24.28Z"/><path class="cls-25" d="M60.35,24.89c.2.3.55,1.06-.13,1-.49-.07-.19-.6,0-.83a.05.05,0,1,0-.09-.06c-.26.35-.49,1,.18,1s.38-.81.14-1.16c0-.06-.13,0-.09.07Z"/><path class="cls-26" d="M20.21,26.28s.59.25.58,1.26a5.41,5.41,0,0,1,.61,2.6c.27,4.7-1.59,5.44-1.21,6.3.68,1.55,9.41-.81,9-2.43-1.64-7,1.88-7-1.63-8.76C26.33,24.62,21.38,24.86,20.21,26.28Z"/><path class="cls-27" d="M28.85,38.39,29.93,51.3a4.57,4.57,0,0,0,3.41,0l1.37-11L32.27,37.2Z"/><path class="cls-28" d="M20,37.2s-.88,6.27,3.52,6,6.65-4.4,8.22-4,4.89,8,4.89,8a3.63,3.63,0,0,0,3.23-1.27S38,36.33,34.62,34,20,37.2,20,37.2Z"/><path class="cls-29" d="M30.19,28.38c.13.26,2.77,4,2.26,5-.23.43-1.59.51-2.47-.71s-2.19-4.22-.92-4.19A8.42,8.42,0,0,0,30.19,28.38Z"/><path class="cls-29" d="M37.32,33.16a1.41,1.41,0,0,1-.21.16c-.53.1-5.23,1.41-5.8-.3-.84-2.53,2-.85,5.49-.62Z"/><path class="cls-29" d="M35.3,32.62a6.08,6.08,0,0,1,2.36-.23c1,.25,1.66,1,1.55,1.29-.21.48-1.72-.44-1.92-.4a5.82,5.82,0,0,1-1.08.11C36,33.38,35.3,32.62,35.3,32.62Z"/><path class="cls-29" d="M21.14,30.39a1.57,1.57,0,0,0-.72-2c-.45-.18-1,.3-1.36.76-.94,1.13-3,6.29-1.64,7.51S20.54,32.75,21.14,30.39Z"/><path class="cls-26" d="M28.77,25.75c-2.15-1.24-4.62-.83-5.2-.31-.33.29,2.14.23,2.36.79.38,1,1.57,4.22,3.13,5.7.54.5,3-.86,2.42-2.07C30.79,28.37,29.92,26.41,28.77,25.75Z"/><path class="cls-26" d="M22.85,27.41c.22-.9,1.36-1.49.6-1.72a3,3,0,0,0-3.07.38c-1.43,1.23-1.6,2.51-2.58,4.39-.33.63,2.71,2.18,3.27,1.09A15.54,15.54,0,0,0,22.85,27.41Z"/><path class="cls-30" d="M25.86,28.68c.49.07.7-.83.7-.83l-4-2.65h0S23,28.27,25.86,28.68Z"/><path class="cls-30" d="M27.48,28.4c-.58.17-.92-.55-.92-.55l.71-2.73.73.26S29.09,28,27.48,28.4Z"/><path class="cls-30" d="M28,25.38a7.62,7.62,0,0,0-5.47-.18l4,2.65Z"/><path class="cls-29" d="M23.33,24.93s.91,2.89,3.08,2.92c1,0,1.34-.79.79-1.58S23.33,24.93,23.33,24.93Z"/><path class="cls-26" d="M27.27,26.2a.21.21,0,0,0,.31,0,.22.22,0,0,0,0-.32.21.21,0,0,0-.31,0A.22.22,0,0,0,27.27,26.2Z"/><path class="cls-26" d="M27.13,25.82a.23.23,0,0,0,.31,0,.22.22,0,0,0,0-.32.21.21,0,0,0-.31,0A.24.24,0,0,0,27.13,25.82Z"/><circle class="cls-26" cx="27.07" cy="25.26" r="0.22"/><path class="cls-26" d="M23.68,24.78a.22.22,0,0,0,.32,0,.24.24,0,0,0,0-.32.22.22,0,0,0-.32,0A.24.24,0,0,0,23.68,24.78Z"/><path class="cls-19" d="M29.31,19.61a2.7,2.7,0,0,0-2.06-1.38,2.74,2.74,0,0,0-3,1.69c-.52,1.12,0,3.34,0,3.34,1.38.77,1.72,1.33,2,1.26C27.85,24.16,30.55,21.59,29.31,19.61Z"/><path class="cls-29" d="M27.42,26.74a5.4,5.4,0,0,1-.15-3c.1-.37-.44-.59-.26-.73s-1.59-1.13-1.59-1.13,0,2.4-2.09,3Z"/><path class="cls-31" d="M27.21,24c.14-.45-.17-1.07.05-1.25s-2-1.37-2-1.37a2.74,2.74,0,0,1,0,1.29,4.42,4.42,0,0,0,1.82,2Z"/><path class="cls-29" d="M28,19.76c1.41.42,1.66,3.5,0,4.68-.72.5-2.32-.73-3-2.44a4,4,0,0,1,.71-3.21C26,18.28,26.8,19.4,28,19.76Z"/><path class="cls-19" d="M29,20.42c-.21.25-.15-.2-.78-.6A1,1,0,0,0,28,19.7a.54.54,0,0,0-.22-.05.38.38,0,0,0-.33.28,1.53,1.53,0,0,1-.6.75,2.31,2.31,0,0,0-.72.8,1.25,1.25,0,0,1-.15.28,1,1,0,0,0-.18.36c0,.13,0,.26-.06.39a.52.52,0,0,1-.28.41l-.22.08a1.19,1.19,0,0,1-.46,0c-.36-.08-.37-.09-.5-.44a3.77,3.77,0,0,1-.1-2.1,8,8,0,0,1,.52-1.16,2,2,0,0,1,.82-.81,2.73,2.73,0,0,1,2.27,0A1.94,1.94,0,0,1,29,20.42Z"/><path class="cls-29" d="M26.09,21.88s-.52-.77-.93-.69-.14,1.24.65,1.29S26.25,22.09,26.09,21.88Z"/><path class="cls-26" d="M23.71,24.68a.22.22,0,1,0-.3.33.21.21,0,0,0,.31,0A.23.23,0,0,0,23.71,24.68Z"/><path class="cls-26" d="M23.93,25a.22.22,0,0,0-.32,0,.23.23,0,0,0,0,.32.22.22,0,0,0,.31,0A.23.23,0,0,0,23.93,25Z"/><circle class="cls-26" cx="24" cy="25.55" r="0.22"/><path class="cls-26" d="M24.12,26a.21.21,0,0,0,.31,0,.22.22,0,0,0,0-.32.23.23,0,0,0-.31,0A.22.22,0,0,0,24.12,26Z"/><path class="cls-26" d="M24.42,26.35a.21.21,0,0,0,.31,0,.22.22,0,0,0,0-.32.21.21,0,0,0-.31,0A.22.22,0,0,0,24.42,26.35Z"/><path class="cls-26" d="M24.8,26.55a.21.21,0,0,0,.31,0,.24.24,0,0,0,0-.32.23.23,0,0,0-.31,0A.22.22,0,0,0,24.8,26.55Z"/><path class="cls-26" d="M25.17,26.72a.21.21,0,0,0,.31,0,.22.22,0,0,0,0-.32.23.23,0,0,0-.31,0A.22.22,0,0,0,25.17,26.72Z"/><path class="cls-26" d="M25.53,26.93a.22.22,0,0,0,.32,0,.23.23,0,1,0-.32,0Z"/><path class="cls-26" d="M26,27a.21.21,0,0,0,.31,0,.22.22,0,0,0,0-.32.23.23,0,0,0-.31,0A.22.22,0,0,0,26,27Z"/><path class="cls-26" d="M26.37,27a.21.21,0,0,0,.31,0,.22.22,0,0,0,0-.32.21.21,0,0,0-.31,0A.22.22,0,0,0,26.37,27Z"/><path class="cls-26" d="M26.78,26.83a.22.22,0,1,0,0-.31A.21.21,0,0,0,26.78,26.83Z"/><path class="cls-26" d="M27.11,26.57a.22.22,0,0,0,.32,0,.23.23,0,0,0,0-.31.22.22,0,0,0-.32,0A.23.23,0,0,0,27.11,26.57Z"/><path class="cls-32" d="M28.59,30.47a1.55,1.55,0,0,0,.09,1.14c.08.14.28,0,.21-.12a1.3,1.3,0,0,1-.06-.95c0-.15-.2-.22-.24-.07Z"/><path class="cls-19" d="M24.34,23a4.43,4.43,0,0,0-1.63,1.59c-1,1.61-1.32,5.42,2.89,5.42,0,0-1.54-5.52-.72-6.65Z"/><path class="cls-33" d="M24.15,22.92l-.09.28s.75.41.77.35a4,4,0,0,1,.27-.34Z"/><path class="cls-29" d="M21.08,37.34s2.34,1,2.53,1.18c1.22.9,2,1.09,1.74,1.26-.46.31-2.09-.37-2.33-.47a10.94,10.94,0,0,1-1.28-.65A5,5,0,0,1,21.08,37.34Z"/><path class="cls-29" d="M17.52,36.78c1.15,1,5.5,2.54,5.5,2.54l-.23-1-4.24-3.46S16.36,35.75,17.52,36.78Z"/><path class="cls-32" d="M21.65,29.74a1.6,1.6,0,0,1-.08,1.14.12.12,0,0,1-.21-.13,1.35,1.35,0,0,0,.06-.95c0-.15.2-.22.23-.06Z"/><path class="cls-21" d="M26.73,21.83l0,0,.09.06a.23.23,0,0,0,.29-.12c0-.06.14,0,.1.08a.37.37,0,0,1-.61,0c-.05,0,.05-.12.1-.07Z"/><path class="cls-21" d="M28.12,21.78a.44.44,0,0,0,.08.11c.12.1.22,0,.3-.06s.15,0,.1.08a.32.32,0,0,1-.4.13.57.57,0,0,1-.2-.21c0-.07.08-.12.12,0Z"/><path class="cls-3" d="M28.52,21.24a.38.38,0,0,0-.5.11c-.06.08-.17,0-.11-.1a.52.52,0,0,1,.68-.14.07.07,0,1,1-.07.13Z"/><path class="cls-3" d="M27.22,21.36a.37.37,0,0,0-.51,0c-.08.06-.16-.07-.08-.13a.52.52,0,0,1,.7.05c.06.07,0,.18-.11.11Z"/><path class="cls-31" d="M27.7,21.54a.79.79,0,0,0-.1.4c0,.2.21.33.3.51s-.07.34-.34.36c-.07,0-.09-.08,0-.08.62-.05,0-.49,0-.75a.81.81,0,0,1,.11-.48c0-.05.12,0,.09,0Z"/><path class="cls-23" d="M27,23s-.14.5.28.59a.5.5,0,0,0,.56-.36Z"/><path class="cls-34" d="M26.25,22.67a.28.28,0,0,0,.32.25.29.29,0,0,0,.26-.32.3.3,0,0,0-.33-.26A.29.29,0,0,0,26.25,22.67Z"/><path class="cls-34" d="M28.79,22.46a.29.29,0,1,0,0,.41A.28.28,0,0,0,28.79,22.46Z"/><path class="cls-5" d="M19.87,33c-.28,0-11.49.33-12.58,1.41s2.17,14.32,3.44,15.21,8.77.77,8.77.77Z"/><path class="cls-6" d="M22.36,34.88a2.5,2.5,0,0,0-1.95-1.76,3,3,0,0,0-1.91.12c-1.26.64-.46,17.19-.46,17.19h4.17S23.55,39.21,22.36,34.88Z"/><path class="cls-5" d="M21.34,50.33c.29-2.16.48-4.34.61-6.52.16-2.72.58-6.18-.49-8.78-.49-1.21-1.59-1.64-2.24-.31-1.1,2.26-.72,5.6-.63,8,.08,2.56.32,5.1.54,7.65,0,.17.28.17.27,0a73.76,73.76,0,0,1-.48-12.86c.08-.84.11-2.4.76-3.07,1-1,1.59.72,1.77,1.51a29.26,29.26,0,0,1,.2,8.36c-.13,2-.31,4-.58,6,0,.17.25.17.27,0Z"/><path class="cls-27" d="M47.71,17.2a4.37,4.37,0,1,1-6.1-1A4.38,4.38,0,0,1,47.71,17.2Z"/><path class="cls-27" d="M47.13,12a4.26,4.26,0,1,1-5.94-1A4.26,4.26,0,0,1,47.13,12Z"/><path class="cls-27" d="M42,15a4.87,4.87,0,1,1-6.79-1.13A4.87,4.87,0,0,1,42,15Z"/><path class="cls-27" d="M42.38,20a3.56,3.56,0,1,1-5-.82A3.56,3.56,0,0,1,42.38,20Z"/><path class="cls-27" d="M35.76,13.52a2.43,2.43,0,1,1-3.4-.57A2.43,2.43,0,0,1,35.76,13.52Z"/><path class="cls-27" d="M51.81,20.08a1.51,1.51,0,1,1-2.1-.35A1.5,1.5,0,0,1,51.81,20.08Z"/><path class="cls-27" d="M54.05,20.74a.88.88,0,0,1-.2,1.22.87.87,0,1,1,.2-1.22Z"/><path class="cls-35" d="M41.25,20.69c-3.4-.28-3.94-2.15-4-2.24l.19-.05s.66,2.26,5.07,2.12c1.5-.05,2.47-.49,2.68-1.22a1.4,1.4,0,0,0-.74-1.5.78.78,0,0,0-.18-.11,3.39,3.39,0,0,1-2.09,1c-1.47.23-3.87-.16-4.48-.92a.56.56,0,0,1-.11-.57.79.79,0,0,1,.55-.4,3.68,3.68,0,0,1,.85-.16,1.19,1.19,0,0,1,.33-.39,5.47,5.47,0,0,1,2.51-.58,1.92,1.92,0,0,0-.8-.37,4.92,4.92,0,0,0-4.3.83,2,2,0,0,0-.42,2.05l-.19.05A2.17,2.17,0,0,1,36.63,16c1-1.05,3.07-1.24,4.49-.89a1.81,1.81,0,0,1,1,.57,3,3,0,0,1,2.18.64.94.94,0,0,1,.2,1,.75.75,0,0,1-.1.2l.18.11a1.61,1.61,0,0,1,.82,1.72c-.23.82-1.27,1.32-2.86,1.37A11,11,0,0,1,41.25,20.69ZM39,16.87a3.36,3.36,0,0,0-.74.14c-.23.07-.38.17-.42.28a.33.33,0,0,0,.08.37c.51.65,2.76,1.09,4.29.85a3.3,3.3,0,0,0,1.94-.91A9.91,9.91,0,0,0,42,17a1.4,1.4,0,0,1-.41.3c-1,.47-2.23.29-2.53-.19A.54.54,0,0,1,39,16.87Zm.2,0a.3.3,0,0,0,0,.18,2.08,2.08,0,0,0,2.27.12,1.07,1.07,0,0,0,.25-.16A13.56,13.56,0,0,0,39.18,16.85Zm3,0a8.9,8.9,0,0,1,2.1.59,1.74,1.74,0,0,0,.1-.19.76.76,0,0,0-.17-.79,2.73,2.73,0,0,0-1.91-.56.81.81,0,0,1,.08.27A1,1,0,0,1,42.14,16.85Zm-.1-1a5.42,5.42,0,0,0-2.55.53,1.15,1.15,0,0,0-.22.22,13,13,0,0,1,2.65.17.87.87,0,0,0,.22-.63A.72.72,0,0,0,42,15.9Z"/><polygon class="cls-35" points="35.66 17.93 36.29 18.78 36.52 17.74 35.66 17.93"/><polygon class="cls-35" points="37.95 18.64 37.24 17.85 37.11 18.91 37.95 18.64"/></g></g></svg>