<svg xmlns="http://www.w3.org/2000/svg" viewBox="0 0 63.26 59.46"><defs><style>.cls-1{fill:#f0f8ff;}.cls-2{fill:#c2c23c;}.cls-3{fill:#969924;}.cls-4{fill:#94b8ed;}.cls-5{fill:#ff4650;}.cls-6{fill:#618bf0;}.cls-7{fill:#fbb99d;}.cls-8{fill:#fce6d9;}.cls-9{fill:#feb801;}.cls-10{fill:#fdfefd;}.cls-11{fill:#d3293d;}.cls-12{fill:#edd0c3;}.cls-13{fill:#dc8162;}.cls-14{fill:#53424d;}.cls-15{fill:#1e100c;}.cls-16{fill:#552b19;}.cls-17{fill:#faffff;}.cls-18{fill:#f3a498;}</style></defs><g id="Layer_2" data-name="Layer 2"><g id="Layer_1-2" data-name="Layer 1"><path class="cls-1" d="M37.24,56c-9.68-6.73-11.36-4.56-20.1-.58C7.67,59.7,2,55.55,1.38,48.56c-1.18-14.32,17.43-7.81,15.53-23C15.52,14.36,20.63,9.48,27.48,8.38S43.76,9.71,43.2,20.3c-.31,5.86,8.16,8.31,13.65,11.14,8.26,4.25,7,15.1,3.62,20C54.78,59.64,46.29,62.25,37.24,56Z"/><path class="cls-2" d="M33.77,46.49s8,.48,8.66-1.37-.41-4.29,2.44-5.86,4.14-4,5.37-3.35c1.58.87.14,2.72-1.51,4.39a4.21,4.21,0,0,0-1,4.87c1,2.55-2.36,3.2-2.45,6.41,0,1.31-2.77,5.4-9.48,2.57Z"/><path class="cls-2" d="M27.7,41.85s-10.06,4.41-12,2.34-1.85-5.76-6.43-6.44S1.66,34.48.44,35.94c-1.57,1.88,1.33,3.61,4.4,5a6.18,6.18,0,0,1,4,5.85c.13,3.78,4.85,3,6.75,7.15.78,1.69,6.61,5.71,13.73-1.17Z"/><path class="cls-3" d="M29.84,52.46c-3.91.45-17.7-5.24-17.84-5.3l.05-.1c.14.06,13.91,5.74,17.79,5.3Z"/><path class="cls-3" d="M18.25,49.67a2,2,0,0,1-1.27.51v-.1c.72-.09,1.15-.3,1.29-.62.23-.52-.41-1.19-.42-1.2l.08-.07s.69.72.44,1.31A1,1,0,0,1,18.25,49.67Z"/><path class="cls-3" d="M15,48.44a2,2,0,0,1-1.27.51v-.1c.72-.09,1.15-.3,1.29-.62.23-.52-.41-1.19-.42-1.2l.09-.07s.69.72.43,1.3A.78.78,0,0,1,15,48.44Z"/><path class="cls-3" d="M13.06,47.76a2,2,0,0,1-1.27.51v-.1c.72-.1,1.15-.3,1.29-.62.23-.53-.41-1.19-.42-1.2l.09-.07s.68.72.43,1.3A.87.87,0,0,1,13.06,47.76Z"/><path class="cls-3" d="M16.77,49.1a1.62,1.62,0,0,1-1.06.43v-.1c.59-.08.94-.25,1.06-.51.18-.43-.34-1-.35-1l.09-.07s.57.6.36,1.09A.71.71,0,0,1,16.77,49.1Z"/><path class="cls-3" d="M19.89,50.25a1.93,1.93,0,0,1-1.27.51v-.1c.71-.09,1.14-.3,1.28-.62.23-.52-.41-1.19-.41-1.2l.08-.07s.69.72.43,1.31A.45.45,0,0,1,19.89,50.25Z"/><path class="cls-3" d="M21.73,51.05a1.93,1.93,0,0,1-1.27.51v-.1c.71-.09,1.15-.3,1.28-.62.23-.52-.41-1.19-.41-1.2l.08-.07s.69.72.43,1.31A.45.45,0,0,1,21.73,51.05Z"/><path class="cls-3" d="M23.26,51.42a1.44,1.44,0,0,1-.92.37v-.1c.51-.07.81-.21.91-.43s-.29-.83-.3-.84l.09-.07s.49.52.31.94Z"/><path class="cls-3" d="M23.61,55.53s-3.4.52-3.54-2.58S19,48.46,15.73,47s-3.83-3.31-3.48-5.6S7,38.16,8.57,35.81c2.55-3.75.71-5.1-1.41-6-2.39-1-3.79-3.94-.8-4.46s6.13,3.2,6.7,5,1.37,3.4,4.86,3.74,4.78,1.51,5.88,3.78.51,2.34,4,4.65Z"/><path class="cls-2" d="M31.23,51.62c-5.39-1.89-19.55-17.93-19.7-18.09l.13-.09c.14.16,14.28,16.17,19.63,18Z"/><path class="cls-2" d="M18,40.71a3,3,0,0,1-2-.14l.06-.14c1,.33,1.69.34,2.09,0,.65-.53.26-1.8.25-1.81l.16,0c0,.06.42,1.36-.31,1.95A.76.76,0,0,1,18,40.71Z"/><path class="cls-2" d="M14.56,37.06a2.89,2.89,0,0,1-2-.14l0-.14c1,.34,1.7.34,2.09,0C15.36,36.27,15,35,15,35l.15,0c0,.06.42,1.37-.3,2A1.1,1.1,0,0,1,14.56,37.06Z"/><path class="cls-2" d="M12.52,35a2.92,2.92,0,0,1-2-.14l.06-.14c1,.34,1.7.34,2.09,0,.65-.53.26-1.8.25-1.81l.16,0c0,.06.42,1.36-.3,2A1,1,0,0,1,12.52,35Z"/><path class="cls-2" d="M16.45,39.05a2.47,2.47,0,0,1-1.66-.12l.06-.13c.82.27,1.39.27,1.71,0,.53-.43.22-1.47.21-1.48l.16,0s.35,1.13-.26,1.63A1.16,1.16,0,0,1,16.45,39.05Z"/><path class="cls-2" d="M19.75,42.49a2.89,2.89,0,0,1-2-.14l0-.13c1,.33,1.7.33,2.09,0,.65-.53.26-1.79.26-1.8l.15,0s.42,1.36-.3,2A1.1,1.1,0,0,1,19.75,42.49Z"/><path class="cls-2" d="M21.61,44.69a3,3,0,0,1-2-.15l.06-.13c1,.33,1.69.33,2.08,0,.65-.53.27-1.79.26-1.8l.16,0c0,.05.41,1.36-.31,2A1.28,1.28,0,0,1,21.61,44.69Z"/><path class="cls-2" d="M23.35,46.12a2.12,2.12,0,0,1-1.44-.1l.06-.14c.7.24,1.19.24,1.46,0,.45-.37.18-1.26.18-1.26l.15,0s.3,1-.22,1.4A.76.76,0,0,1,23.35,46.12Z"/><path class="cls-3" d="M36.38,57c3.17-2,9.93-14.2,10-14.33l-.09,0c-.07.13-6.81,12.34-10,14.3Z"/><path class="cls-3" d="M43.27,48.21a1.91,1.91,0,0,0,1.25-.38l-.05-.07c-.59.35-1,.45-1.33.3-.49-.24-.42-1.1-.42-1.11h-.11s-.07.93.47,1.2A.62.62,0,0,0,43.27,48.21Z"/><path class="cls-3" d="M44.94,45.39A1.93,1.93,0,0,0,46.2,45l-.06-.08c-.59.36-1,.46-1.33.31-.49-.25-.42-1.11-.42-1.12h-.1s-.08.93.47,1.2A.55.55,0,0,0,44.94,45.39Z"/><path class="cls-3" d="M46,43.77a1.89,1.89,0,0,0,1.25-.37l-.05-.08c-.59.35-1,.45-1.33.31-.49-.25-.42-1.11-.42-1.12h-.11s-.07.92.47,1.2A.6.6,0,0,0,46,43.77Z"/><path class="cls-3" d="M44,46.93a1.55,1.55,0,0,0,1-.31L45,46.54c-.49.29-.85.38-1.1.25s-.34-.91-.34-.91h-.1s-.06.78.39,1Z"/><path class="cls-3" d="M42.41,49.6a1.94,1.94,0,0,0,1.25-.38l-.06-.08c-.58.36-1,.46-1.33.31-.49-.25-.42-1.11-.42-1.12h-.1s-.08.93.47,1.2Z"/><path class="cls-3" d="M41.53,51.26a1.91,1.91,0,0,0,1.25-.38l-.06-.07c-.58.35-1,.45-1.32.3C40.91,50.87,41,50,41,50h-.11s-.07.93.47,1.2Z"/><path class="cls-3" d="M40.63,52.42a1.41,1.41,0,0,0,.9-.27l-.06-.08c-.41.25-.72.32-.93.22s-.29-.78-.29-.78h-.1s-.06.66.34.86Z"/><path class="cls-4" d="M52.28,15.61c0,1.41-8,2.49-17.69,2.49S16.9,17,16.9,15.61,24.9,13,34.59,13,52.28,14.2,52.28,15.61Z"/><path class="cls-5" d="M23.76,23.75c-.17-.24-4-6-3-10.67A6.13,6.13,0,0,1,23.61,9a12.34,12.34,0,0,1,2.33-1.17c.56-3,2.28-4.9,5-5.44a9.33,9.33,0,0,1,2.88-.16A5.33,5.33,0,0,1,36.3.35c2.52-1,5.64.09,7.57,2.56A8.09,8.09,0,0,1,45.3,5.63a7.75,7.75,0,0,1,2.42.4,4,4,0,0,1,2.34,2.41c.8,2.25-.1,5.39-2.69,9.31l-.66-.43c3-4.62,3.1-7.24,2.61-8.62a3.17,3.17,0,0,0-1.84-1.92,7.31,7.31,0,0,0-2-.37,11.24,11.24,0,0,1-2.16,8.53,4.08,4.08,0,0,1-2.8,1.67h0a3.11,3.11,0,0,1-2.48-1.52c-1.07-1.45-.74-3.87.83-6a8.3,8.3,0,0,1,5.61-3.4,7.41,7.41,0,0,0-1.24-2.29C41.53,1.2,38.78.25,36.58,1.09a4.36,4.36,0,0,0-1.91,1.32,4.28,4.28,0,0,1,3.17,3c.5,1.63.72,3.75-.18,4.79a1.84,1.84,0,0,1-1.8.58c-1.4-.2-2.69-2.2-2.94-4.54A6.15,6.15,0,0,1,33.39,3a9.09,9.09,0,0,0-2.31.18,5.36,5.36,0,0,0-4.3,4.41A4.2,4.2,0,0,1,30.19,8c1.84,1.21,2.31,4,2,6.15a3.73,3.73,0,0,1-3.23,2.71h0c-.86,0-2.36-.5-2.92-3.83a15.75,15.75,0,0,1-.19-4.32A12,12,0,0,0,24,9.69a5.36,5.36,0,0,0-2.52,3.55c-.92,4.38,2.86,10,2.9,10.07Zm2.86-15.3a15,15,0,0,0,.15,4.48c.35,2.05,1.11,3.18,2.15,3.18h0a3,3,0,0,0,2.45-2c.3-1.88-.08-4.36-1.62-5.37A3.63,3.63,0,0,0,26.62,8.45Zm18.08-2a7.36,7.36,0,0,0-5.19,3.11c-1.34,1.83-1.68,3.92-.83,5.08a2.4,2.4,0,0,0,1.85,1.19h0a3.22,3.22,0,0,0,2.16-1.34A10.35,10.35,0,0,0,44.7,6.44ZM34.21,3.1a5.5,5.5,0,0,0-.51,3.06C33.93,8.27,35.08,9.88,36,10a1.1,1.1,0,0,0,1.09-.32c.65-.75.48-2.57,0-4A3.57,3.57,0,0,0,34.21,3.1Z"/><path class="cls-6" d="M34.59,18.1c-9.18,0-16.72-1-17.64-2.29.11,3.93.27,4.09-1.71,6-2.61,2.48-3.51,2.37-3.33,4.24s2.59,1.22,3.37,1.82c1.38,1,.39,2.25-.7,3s-1.43,1.8-.3,2.94c0,0-1.25,1.29,0,2.17s2.63-.22,1.44,2.1.66,4.46,4.55,3.78c1.71-.29,4.18-1.38,5.44.19S25.38,52,23.1,54.91s18.56,4.31,20.79,0c.72-1.38-3.45-6.3-3.14-9.13S42,41.26,45,36.62c3.92-6.06,7.25-14,7.22-20.83C51.4,17.08,43.82,18.1,34.59,18.1Z"/><path class="cls-7" d="M63.06,28.6c.36,1.46-.59,5.65-.59,5.65l-.92-1-.37-4.58S62.7,27.15,63.06,28.6Z"/><path class="cls-7" d="M63.13,29.18s-.29-3.68-1.69-4.76a2.18,2.18,0,0,0-2.75.1s2.62,3.27,2.6,5.38S63.13,29.18,63.13,29.18Z"/><path class="cls-7" d="M61.19,34a1,1,0,0,0-.27.52c0,.12,0,.25,0,.38a3.64,3.64,0,0,1-.2.77.45.45,0,0,0,0,.16.18.18,0,0,0,.09.14.16.16,0,0,0,.17,0,.71.71,0,0,0,.1-.14,1.88,1.88,0,0,1,.27-.55.21.21,0,0,1,.18-.09c.11,0,.13.16.12.27a1.25,1.25,0,0,1-.12.54.58.58,0,0,1-.43.31c-.11,0-.25,0-.32.08a.2.2,0,0,0,0,.26.45.45,0,0,0,.28.07,2,2,0,0,0,.34-.05,1.71,1.71,0,0,0,.65-.24,1.24,1.24,0,0,0,.45-.79,4.92,4.92,0,0,0,0-.94,8.58,8.58,0,0,1,.06-1.24.71.71,0,0,0-.06-.5.59.59,0,0,0-.24-.17.82.82,0,0,0-.34-.09.4.4,0,0,0-.31.13.61.61,0,0,0-.08.53c0,.11.08.27,0,.36S61.3,33.86,61.19,34Z"/><path class="cls-8" d="M59.51,23.18a3.22,3.22,0,0,1,3.1,2.45c.82,2.26.63,2.15.63,2.15l-2.12.56S58.68,24.78,59.51,23.18Z"/><polygon class="cls-5" points="60.92 40.18 52.57 34.07 52.73 32.82 60.67 32.19 60.92 40.18"/><path class="cls-9" d="M52.81,54.44s-.32.39-.69.91-.66,1.08-.14,1.33,1.17-.37,1.38-.73.44-.33.72-.57.14-1.14.14-1.14Z"/><path class="cls-5" d="M57.65,37.17c-.77,1-3.33,17.3-3.33,17.3-.77.67-1.93,0-1.93,0-.83-8.31.2-20.65.2-20.65s5.83,4.36,5.06,3.35Z"/><path class="cls-9" d="M60.49,54.71s.32.39.7.91.66,1.08.13,1.33-1.17-.37-1.38-.73-.44-.33-.72-.57-.14-1.15-.14-1.15Z"/><path class="cls-5" d="M55.65,37.44c.77,1,3.34,17.3,3.34,17.3.77.67,1.92,0,1.92,0,.84-8.31-.07-21.4-.07-21.4s-6,5.11-5.19,4.1Z"/><path class="cls-7" d="M49.32,28.45s3.43-.72,4.38-2.2a2,2,0,0,0-.13-2.53s-3,2.81-5,3.05S49.32,28.45,49.32,28.45Z"/><path class="cls-8" d="M55.64,23s.34,0,.09,1.64c-.3,2-3.74,3.24-3.74,3.24l-1.78-1.95S53.5,23,55.64,23Z"/><path class="cls-8" d="M53.69,24.49c.54-1.82,3.17-1.91,5.32-1.58,1.44.23,2.25,1.22,2.25,3,0,1.17.1,6.07-.6,7.46,0,0-2.42,1.84-8-.39A30.5,30.5,0,0,1,53.69,24.49Z"/><path class="cls-7" d="M49.86,28.31c-1.35.52-4.35.14-4.35.14l.23-1.05,3.95-.88S51.2,27.79,49.86,28.31Z"/><path class="cls-7" d="M44.47,27.26c-.47-.13-.93-.31-1.4-.43a1.13,1.13,0,0,0-.41-.06.4.4,0,0,0-.15,0,.13.13,0,0,0,0,.14s.08.08.08.13-.11.06-.16.11a.12.12,0,0,0,0,.15.33.33,0,0,0,.14.1l.38.2a.32.32,0,0,1-.22.1h-.1s-.06.05,0,.08a.09.09,0,0,0,0,.05,1.52,1.52,0,0,0,.69.29c.24.05.49.07.73.14s.24.09.28.2,0,.28-.09.41L44,29.2c0,.08-.08.19,0,.25a.16.16,0,0,0,.15,0,2.18,2.18,0,0,0,.64-.45,2.45,2.45,0,0,1,1.31-.56.35.35,0,0,0,.11,0,.34.34,0,0,0,.12-.12,1,1,0,0,0,.13-.64.19.19,0,0,0,0-.1.31.31,0,0,0-.09-.07,1.63,1.63,0,0,0-.82-.06A3.51,3.51,0,0,1,44.47,27.26Z"/><path class="cls-10" d="M57.78,23.63a80.46,80.46,0,0,1-.68,9.82l-.68,0a45.82,45.82,0,0,0,.77-9.87Z"/><path class="cls-11" d="M61,33.77s-5.22,1-8.48-.57l.23-.86a15.76,15.76,0,0,0,8.16.44Z"/><polygon class="cls-5" points="58.35 32.89 57.89 32.89 57.78 34.34 58.54 34.34 58.35 32.89"/><polygon class="cls-5" points="55.12 32.73 54.78 32.62 54.21 33.94 54.9 34.16 55.12 32.73"/><path class="cls-12" d="M57.61,24.73a.15.15,0,0,0,0-.22.15.15,0,0,0-.23.2A.16.16,0,0,0,57.61,24.73Z"/><path class="cls-12" d="M57.61,26.17a.15.15,0,0,0,0-.22.15.15,0,0,0-.21,0,.15.15,0,1,0,.2.23Z"/><path class="cls-12" d="M57.55,27.45a.16.16,0,0,0-.22,0,.15.15,0,0,0,0,.22.15.15,0,0,0,.23-.2Z"/><path class="cls-12" d="M57.17,29.19a.14.14,0,0,0,0,.21.15.15,0,1,0,.23-.2A.15.15,0,0,0,57.17,29.19Z"/><path class="cls-12" d="M57,31.18a.16.16,0,0,0,0,.22.14.14,0,0,0,.21,0,.15.15,0,0,0,0-.21A.15.15,0,0,0,57,31.18Z"/><path class="cls-12" d="M60.26,26.72H58.68l.07-.08c0,.52,0,1.55.58,1.72s.93-.39,1-.9a2.7,2.7,0,0,0-.1-.8c0-.09.12-.13.14,0,.23.75.11,2-.91,1.91-.8-.06-.86-1.27-.82-1.89a.07.07,0,0,1,.08-.07h1.58A.07.07,0,0,1,60.26,26.72Z"/><path class="cls-12" d="M54.44,26.26l1.65.19a.07.07,0,0,1,.07.07c0,.74-.22,2-1.16,1.86s-.84-1.37-.63-2.06a.08.08,0,0,1,.15,0,2.39,2.39,0,0,0-.08,1.35.69.69,0,0,0,.89.49c.33-.1.48-.47.57-.78s.06-.51.11-.76a.57.57,0,0,0,0-.13c0,.21.14,0,0,.06s-.11,0-.14,0l-1.46-.17C54.35,26.4,54.35,26.25,54.44,26.26Z"/><path class="cls-7" d="M58.86,20.76s-2.2.49-2.08.68-.09.56-.09.93a2.19,2.19,0,0,1-.6,1.21c-.24.28.18.62.56.69,1.61.31,2.64-.31,2.29-.86A3,3,0,0,1,58.86,20.76Z"/><path class="cls-13" d="M56.69,22.37c0-.37.22-.75.09-.93S59,20.72,59,20.72a1.78,1.78,0,0,0-.42,1,6.45,6.45,0,0,1-2.07,1.2A1.51,1.51,0,0,0,56.69,22.37Z"/><path class="cls-7" d="M56.58,17.75c-.93.72-1.72,3.23-.75,4.43.53.65,2.47,0,3.38-1.47a3.27,3.27,0,0,0-.08-2.41A1.85,1.85,0,0,0,56.58,17.75Z"/><path class="cls-14" d="M55.51,19.72c0,.16.2-1.52,1.11-1.63.37-.05.28.36.71.39s1.46-.73,1,1.52c0,.11.08.24.13.34s-.13.39-.13.53.38-.27.37-.14-.15.39-.17.6c0,.38.29.17.42,0l.52-.74a1,1,0,0,0,.21-.39c0-.07.06-.38.12-.4a.76.76,0,0,1,.34,0,2.72,2.72,0,0,0-.16-1,1.58,1.58,0,0,0-.6-.77,2.41,2.41,0,0,0,.38,0,.07.07,0,0,0,.06,0s0-.08,0-.11a3.42,3.42,0,0,0-.64-.62c-.15-.1-.57-.41-.76-.33a.38.38,0,0,0,.18-.15,7.24,7.24,0,0,0-1.54.08,2.11,2.11,0,0,0,.26-.4,2.16,2.16,0,0,0-1.15.64,1.64,1.64,0,0,0-.37,1.33c0,.1,0,.12-.07.2a1.7,1.7,0,0,0-.12.34A2.25,2.25,0,0,0,55.51,19.72Z"/><path class="cls-7" d="M58.14,20.56s.67-.61,1-.43-.15,1.22-.91,1.07S57.94,20.73,58.14,20.56Z"/><path class="cls-15" d="M57.76,20.2h0a.23.23,0,0,1-.11,0c-.14,0-.2-.08-.23-.2s-.13,0-.12,0a.37.37,0,0,0,.56.22c.07,0,0-.13-.07-.1Z"/><path class="cls-15" d="M56.48,19.72a.47.47,0,0,1-.12.07c-.13.06-.21,0-.26-.15s-.14,0-.11,0a.32.32,0,0,0,.33.25.55.55,0,0,0,.25-.13c.06-.06,0-.13-.09-.08Z"/><path class="cls-16" d="M56.27,19.08a.38.38,0,0,1,.43.27c0,.09.17,0,.14-.06a.5.5,0,0,0-.59-.35c-.09,0-.07.16,0,.14Z"/><path class="cls-16" d="M57.45,19.61a.37.37,0,0,1,.48.13c.06.08.17,0,.12-.09a.51.51,0,0,0-.66-.18.08.08,0,0,0,.06.14Z"/><path class="cls-13" d="M56.94,19.62a.64.64,0,0,1,0,.41c-.08.18-.3.24-.44.38s0,.34.2.45c.07,0,.11-.05,0-.08-.57-.24.15-.45.27-.68a.83.83,0,0,0,.06-.49c0-.05-.11-.05-.11,0Z"/><path class="cls-17" d="M57.13,21.17s0,.51-.44.46-.41-.51-.41-.51Z"/><path class="cls-18" d="M58,21.11a.28.28,0,0,1-.51-.25.28.28,0,0,1,.38-.14A.3.3,0,0,1,58,21.11Z"/><path class="cls-18" d="M55.63,20.13a.31.31,0,0,1,.41.1.3.3,0,0,1-.1.4.29.29,0,0,1-.31-.5Z"/></g></g></svg>