<svg xmlns="http://www.w3.org/2000/svg" viewBox="0 0 84.91 54.9"><defs><style>.cls-1{fill:#f0f8ff;}.cls-2{fill:#4674d1;}.cls-3{fill:#618bf0;}.cls-4{fill:#94b8ed;}.cls-5{fill:#bcb326;}.cls-6{fill:#969924;}.cls-7{fill:#c2c23c;}.cls-8{fill:#aa9b1a;}.cls-9{fill:#fbb433;}.cls-10{fill:#e08b03;}.cls-11{fill:#e1f3f9;}.cls-12{fill:#b7d9f7;}.cls-13{fill:#fff;}.cls-14{fill:#c1e3fb;}.cls-15{fill:#a9d1ea;}.cls-16{fill:#8b482a;}.cls-17{fill:#eaad49;}.cls-18{fill:#ffa60e;}.cls-19{fill:#ff4650;}.cls-20{fill:#d3293d;}.cls-21{fill:#ffc662;}.cls-22{fill:#612c13;}.cls-23{fill:#53424d;}.cls-24{fill:#1e100c;}.cls-25{fill:#faffff;}.cls-26{fill:#d4719a;}</style></defs><g id="Layer_2" data-name="Layer 2"><g id="Layer_1-2" data-name="Layer 1"><path class="cls-1" d="M36.77,49.93c-9.72-7-11.38-4.79-20.11-.68C7.2,53.71,1.47,49.36.87,42.05-.37,27.11,18.26,34,16.31,18.11,14.87,6.42,20,1.35,26.82.23S43.1,1.68,42.59,12.74c-.29,6.11,8.19,8.7,13.7,11.67C64.56,28.89,63.35,40.2,60,45.29,54.33,53.83,45.85,56.53,36.77,49.93Z"/><rect class="cls-2" x="17.67" y="5.76" width="27.81" height="46.19" rx="5"/><rect class="cls-3" x="19.28" y="5.76" width="27.81" height="46.19" rx="5"/><rect class="cls-4" x="21.73" y="8.53" width="22.91" height="39.21" rx="5"/><rect class="cls-1" x="21.73" y="8.53" width="21.62" height="39.21" rx="5"/><rect class="cls-4" x="25.84" y="6.63" width="15.15" height="0.87" rx="0.39"/><rect class="cls-4" x="25.61" y="49.22" width="15.15" height="0.87" rx="0.39"/><path class="cls-5" d="M6.89,27.85a1.32,1.32,0,0,1,1.82-.06c.84.59,1.78,4.53,1.28,8.27s1.68,3.43.36,5.82c-.52.95-3.09,0-2.59-2.43C9.33,31.56,5.54,29.86,6.89,27.85Z"/><path class="cls-6" d="M1,25.08a1.51,1.51,0,0,1,2.25-.95c1.85.75,2.87,2.24,3.08,5.35s1.37,4,2.32,6.09.89,6.7-1.23,7S5.23,38.4,3.84,37.39c-2.26-1.62-.77-3.91-.62-5.27C3.57,29.14.08,28.53,1,25.08Z"/><path class="cls-7" d="M10.83,38.75s.51.72,1.48-.78,2-2.72,1.66-4.72,3-7.75.06-9.31c-1.57-.84-4.93-1-4.52,5.47C10,37.21,9.46,36.85,10.83,38.75Z"/><path class="cls-6" d="M.47,36.92c.25-.44,1.09-1,2.05,0a4.15,4.15,0,0,1,1,2A5.66,5.66,0,0,0,5,42c.69.59,2,1.81.73,2S-1.73,40.74.47,36.92Z"/><path class="cls-6" d="M14.83,32a1.48,1.48,0,0,1,1.41-1.87c1.45-.07,2.92,1.39,1.78,4.27s-1.18,6.66-4.35,7-.44-2.49-.21-2.74C14.72,37.21,15.16,35,14.83,32Z"/><path class="cls-5" d="M8.75,47.27l-.12-.07c3.62-5.87,3.66-21.4,3.66-21.55h.14C12.43,25.8,12.38,41.37,8.75,47.27Z"/><path class="cls-5" d="M12.27,28.26h-.09c-.91-.08-1.44-1.4-1.46-1.45l.13-.05s.52,1.29,1.35,1.37c.5,0,1-.36,1.56-1.2l.11.07C13.34,27.83,12.8,28.26,12.27,28.26Z"/><path class="cls-5" d="M12.1,30.75H12c-.92-.09-1.45-1.4-1.47-1.46l.13-.05s.52,1.29,1.35,1.37c.5.05,1-.36,1.56-1.2l.12.07C13.16,30.32,12.63,30.75,12.1,30.75Z"/><path class="cls-5" d="M12.1,33.64H12c-.92-.08-1.45-1.4-1.47-1.46l.13,0s.52,1.3,1.35,1.37c.5,0,1-.35,1.56-1.2l.12.07C13.16,33.22,12.63,33.64,12.1,33.64Z"/><path class="cls-5" d="M11.76,35.82H11.7c-.66-.06-1-1-1.06-1l.13-.05s.36.91.94,1c.35,0,.72-.25,1.09-.84l.12.07C12.53,35.52,12.15,35.82,11.76,35.82Z"/><path class="cls-5" d="M11.15,48.64C7.79,45.05,3.5,26.17,3.45,26l.14,0c0,.19,4.33,19,7.66,22.6Z"/><path class="cls-5" d="M5.47,34.47A2.24,2.24,0,0,1,4,33.62l.1-.09c.62.65,1.16.91,1.59.78.72-.22.93-1.44.94-1.45l.13,0s-.23,1.32-1,1.56A1.09,1.09,0,0,1,5.47,34.47Z"/><path class="cls-8" d="M1.31,39.69a1.61,1.61,0,0,1-.63-.17l0-.12c.41.18.69.2.86.07s.15-.82.15-.82l.13,0s.15.68-.19,1A.57.57,0,0,1,1.31,39.69Z"/><path class="cls-8" d="M2.72,41.53a1.62,1.62,0,0,1-.64-.16l.06-.13c.4.18.69.21.86.07s.15-.81.14-.82l.14,0s.14.68-.2,1A.57.57,0,0,1,2.72,41.53Z"/><path class="cls-8" d="M1.93,40.58a1.62,1.62,0,0,1-.64-.16l.06-.13c.4.18.69.21.86.07s.14-.81.14-.82l.14,0s.14.68-.2,1A.57.57,0,0,1,1.93,40.58Z"/><path class="cls-8" d="M3.48,42.32a1.65,1.65,0,0,1-.64-.17L2.9,42c.4.18.69.2.86.07s.15-.82.14-.83l.14,0s.15.69-.2,1A.52.52,0,0,1,3.48,42.32Z"/><path class="cls-5" d="M4.33,30.1a2.28,2.28,0,0,1-1.47-.85l.1-.1c.62.65,1.16.91,1.59.78.72-.21.93-1.43.94-1.45l.13,0s-.24,1.31-1,1.55A.75.75,0,0,1,4.33,30.1Z"/><path class="cls-5" d="M3.62,27.57a2.26,2.26,0,0,1-1.47-.86l.1-.09c.62.65,1.16.91,1.59.78.71-.22.93-1.44.93-1.45l.14,0c0,.06-.24,1.32-1,1.56A1.17,1.17,0,0,1,3.62,27.57Z"/><path class="cls-5" d="M5,32.49a1.9,1.9,0,0,1-1.23-.71l.1-.09c.51.53,1,.75,1.31.64.58-.18.76-1.18.76-1.19l.14,0s-.2,1.1-.86,1.3A.83.83,0,0,1,5,32.49Z"/><path class="cls-5" d="M6.08,36.64a2.2,2.2,0,0,1-1.46-.85l.09-.09c.63.64,1.16.9,1.6.77C7,36.26,7.24,35,7.24,35l.14,0c0,.05-.24,1.31-1,1.55A.84.84,0,0,1,6.08,36.64Z"/><path class="cls-5" d="M6.61,39.2a2.24,2.24,0,0,1-1.46-.86l.1-.09c.62.65,1.16.91,1.59.78.71-.22.93-1.44.93-1.45l.14,0c0,.06-.24,1.32-1,1.56A1.26,1.26,0,0,1,6.61,39.2Z"/><path class="cls-5" d="M7.36,41.06a1.62,1.62,0,0,1-1.06-.62l.1-.09c.44.46.81.64,1.11.55.5-.15.65-1,.65-1l.14,0s-.17.94-.75,1.12A.63.63,0,0,1,7.36,41.06Z"/><path class="cls-8" d="M13.29,45.41c-5.14,0-8.22-1.89-9.91-3.48A10,10,0,0,1,.9,38.37l.13,0a9.77,9.77,0,0,0,2.45,3.5c1.67,1.58,4.72,3.44,9.81,3.44h.19v.13Z"/><path class="cls-8" d="M16.25,33.27c-.4,0-.76-.47-.77-.49l.11-.08s.37.49.72.43.38-.27.51-.68l.13,0c-.14.48-.35.74-.62.79Z"/><path class="cls-8" d="M16.25,34.85c-.43,0-.75-.58-.76-.6l.12-.06s.29.53.64.53h0c.22,0,.42-.21.61-.61l.12.06c-.21.45-.46.68-.73.68Z"/><path class="cls-8" d="M15.76,37.15c-.43,0-.75-.58-.76-.6l.12-.06s.29.53.64.53h0c.22,0,.42-.21.61-.61l.13.06c-.22.45-.47.68-.74.68Z"/><path class="cls-8" d="M14.83,39.42a.42.42,0,0,1-.22-.05c-.4-.18-.42-.85-.42-.88h.14s0,.61.34.76.47,0,.82-.27l.08.11A1.28,1.28,0,0,1,14.83,39.42Z"/><path class="cls-8" d="M7.32,46.45l-.06-.12C17,41,16.21,32.67,16.2,32.59l.13,0a12.08,12.08,0,0,1-.79,4.91C14.62,40,12.44,43.64,7.32,46.45Z"/><path class="cls-9" d="M6.37,44.34s.06,7.33,1,8.51h5.43s.74-1.66.68-8.51Z"/><path class="cls-10" d="M13.47,44.34h-.56c-.64,3.71-2.22,6.33-4.08,6.33A2.92,2.92,0,0,1,6.6,49.28a9.34,9.34,0,0,0,.76,3.57h5.43S13.53,51.19,13.47,44.34Z"/><rect class="cls-11" x="24.56" y="12.04" width="43.59" height="28.7" rx="1.82"/><path class="cls-12" d="M26.37,12h40a1.82,1.82,0,0,1,1.82,1.82v3.38H24.56V13.86A1.82,1.82,0,0,1,26.37,12Z"/><path class="cls-13" d="M63.74,14.66a.91.91,0,0,0,1.81,0,.91.91,0,1,0-1.81,0Z"/><path class="cls-13" d="M61.45,14.66a.91.91,0,1,0,.91-.91A.91.91,0,0,0,61.45,14.66Z"/><path class="cls-13" d="M59.25,14.66a.91.91,0,1,0,.91-.91A.91.91,0,0,0,59.25,14.66Z"/><rect class="cls-13" x="26.32" y="12.04" width="43.59" height="28.7" rx="1.82"/><path class="cls-14" d="M28.13,12h40a1.82,1.82,0,0,1,1.82,1.82v3.38H26.32V13.86A1.82,1.82,0,0,1,28.13,12Z"/><path class="cls-13" d="M65.5,14.66a.91.91,0,0,0,1.81,0,.91.91,0,1,0-1.81,0Z"/><path class="cls-13" d="M63.21,14.66a.91.91,0,1,0,.91-.91A.91.91,0,0,0,63.21,14.66Z"/><path class="cls-13" d="M61,14.66a.91.91,0,1,0,.91-.91A.91.91,0,0,0,61,14.66Z"/><rect class="cls-11" x="30.11" y="19.57" width="36.44" height="10.52" rx="2"/><rect class="cls-15" x="30.11" y="31.31" width="36.14" height="1.01"/><rect class="cls-15" x="30.11" y="33.67" width="36.14" height="1.01"/><path class="cls-15" d="M33.88,21.7a5,5,0,0,1,.66-.05,1.12,1.12,0,0,1,.75.22.84.84,0,0,1,0,1.13,1.08,1.08,0,0,1-.81.3,1.14,1.14,0,0,1-.28,0v1.07h-.34ZM34.22,23a1.09,1.09,0,0,0,.28,0c.42,0,.67-.2.67-.57s-.25-.52-.63-.52l-.32,0Z"/><path class="cls-15" d="M35.94,23.92a1.16,1.16,0,0,0,.61.18c.36,0,.56-.19.56-.46s-.14-.39-.5-.53-.71-.38-.71-.76a.77.77,0,0,1,.87-.72,1.2,1.2,0,0,1,.59.13l-.1.28a1,1,0,0,0-.5-.13c-.37,0-.51.22-.51.4s.17.38.53.52.68.39.68.78-.3.77-.93.77a1.31,1.31,0,0,1-.68-.17Z"/><path class="cls-15" d="M38.53,24.34V23.21l-.84-1.54h.39l.38.74c.1.2.18.36.26.55h0c.07-.17.17-.35.27-.55l.38-.74h.4l-.9,1.54v1.13Z"/><path class="cls-15" d="M41.8,24.26a1.76,1.76,0,0,1-.7.12A1.25,1.25,0,0,1,39.78,23a1.33,1.33,0,0,1,1.39-1.4,1.39,1.39,0,0,1,.64.12l-.09.28a1.27,1.27,0,0,0-.53-.11,1,1,0,0,0-1,1.1,1,1,0,0,0,1,1.07,1.33,1.33,0,0,0,.56-.11Z"/><path class="cls-15" d="M42.58,21.67v1.12h1.29V21.67h.35v2.67h-.35V23.09H42.58v1.25h-.34V21.67Z"/><path class="cls-15" d="M47.1,23a1.25,1.25,0,0,1-1.24,1.41A1.23,1.23,0,0,1,44.66,23a1.27,1.27,0,0,1,1.24-1.4A1.22,1.22,0,0,1,47.1,23ZM45,23c0,.57.31,1.09.85,1.09s.86-.51.86-1.11-.28-1.09-.85-1.09S45,22.44,45,23Z"/><path class="cls-15" d="M47.55,21.67h.35v2.38H49v.29H47.55Z"/><path class="cls-15" d="M51.55,23a1.25,1.25,0,0,1-1.24,1.41A1.22,1.22,0,0,1,49.11,23a1.27,1.27,0,0,1,1.24-1.4A1.22,1.22,0,0,1,51.55,23Zm-2.07,0c0,.57.31,1.09.85,1.09s.85-.51.85-1.11-.27-1.09-.85-1.09S49.48,22.44,49.48,23Z"/><path class="cls-15" d="M54,24.22a2.39,2.39,0,0,1-.82.15A1.25,1.25,0,0,1,51.84,23a1.33,1.33,0,0,1,1.44-1.37,1.59,1.59,0,0,1,.67.12l-.08.28a1.45,1.45,0,0,0-.59-.12A1,1,0,0,0,52.2,23a1,1,0,0,0,1,1.08,1.07,1.07,0,0,0,.46-.08v-.79h-.54v-.28H54Z"/><path class="cls-15" d="M54.9,21.67v2.67h-.34V21.67Z"/><path class="cls-15" d="M57.37,24.26a1.8,1.8,0,0,1-.7.12A1.24,1.24,0,0,1,55.35,23a1.33,1.33,0,0,1,1.39-1.4,1.38,1.38,0,0,1,.63.12l-.08.28a1.32,1.32,0,0,0-.54-.11,1,1,0,0,0-1,1.1,1,1,0,0,0,1,1.07A1.33,1.33,0,0,0,57.3,24Z"/><path class="cls-15" d="M58.25,23.5l-.28.84h-.35l.9-2.67h.42l.91,2.67h-.37l-.28-.84Zm.88-.27-.27-.77c0-.17-.09-.33-.13-.48h0c0,.16-.09.32-.14.48l-.26.77Z"/><path class="cls-15" d="M60.24,21.67h.35v2.38h1.14v.29H60.24Z"/><path class="cls-15" d="M44.5,26.43v1.12h1.29V26.43h.35V29.1h-.35V27.85H44.5V29.1h-.34V26.43Z"/><path class="cls-15" d="M48.13,27.85h-1v1h1.15v.29h-1.5V26.43h1.44v.29H47.09v.84h1Z"/><path class="cls-15" d="M48.69,26.43H49v2.38h1.14v.29H48.69Z"/><path class="cls-15" d="M50.56,26.46a3.86,3.86,0,0,1,.66-.05,1.12,1.12,0,0,1,.75.22.72.72,0,0,1,.24.56.77.77,0,0,1-.21.57,1.12,1.12,0,0,1-.82.29,1.14,1.14,0,0,1-.27,0V29.1h-.35Zm.35,1.29a1.09,1.09,0,0,0,.28,0c.42,0,.67-.21.67-.58s-.25-.52-.63-.52a1.17,1.17,0,0,0-.32,0Z"/><path class="cls-16" d="M66.21,20.28c0-.29-.51-3.39.23-4,.54-.44,2.35.86,2.35.86s-.84.44-.13,2.92C69.27,22.14,66.21,20.28,66.21,20.28Z"/><path class="cls-16" d="M66.66,16.12c1.31-.91,6-1.92,6-1.92l-.36,1-4.8,2.65S65.34,17,66.66,16.12Z"/><path class="cls-16" d="M72.15,15.43a1.18,1.18,0,0,1,.28.22,1.86,1.86,0,0,0,.6.25c.11,0,.32.25.44.15s-.22-.4-.3-.49a.24.24,0,0,1,0-.29.37.37,0,0,1,.17-.1c.21-.07.43-.1.65-.15l.33-.08a1.18,1.18,0,0,0,.27-.06.12.12,0,0,0,0-.18s-.1,0-.16,0l-.38,0s-.15,0-.17,0,.23-.18.29-.2a.62.62,0,0,0,.36-.18.08.08,0,0,0,0-.05.07.07,0,0,0-.07,0c-.18,0-.35.06-.52.05a.08.08,0,0,1-.07,0c0-.1.15-.19.22-.23s.09-.06.09-.1a.09.09,0,0,0-.07-.06.14.14,0,0,0-.09,0,1.28,1.28,0,0,0-.27,0s-.16.06-.19,0a0,0,0,0,1,0,0s0-.06.09-.09a.13.13,0,0,0,0-.11s-.08-.07-.13-.06a1.84,1.84,0,0,0-.56.14,5.42,5.42,0,0,0-.56.22,10.94,10.94,0,0,1-1,.51l-.15.07a.45.45,0,0,0-.17.27.7.7,0,0,0,.11.59c0,.05.12.16.18.16s.13-.06.17-.08l.19-.08A.62.62,0,0,1,72.15,15.43Z"/><path class="cls-17" d="M71,23.18c.41,1,.41,2.17-.46,2.56a2.16,2.16,0,0,1-2-.69,13.51,13.51,0,0,1-2.84-6.15c-.11-.85,1.7-2.17,2.6-1A22.35,22.35,0,0,1,71,23.18Z"/><path class="cls-18" d="M79.77,51a7.47,7.47,0,0,1,.94,1.48c.05.79-2.09,2.31-3.09,2.38-.14,0-.37-.12-.31-.51s1.1-1.5.68-2S79.77,51,79.77,51Z"/><path class="cls-19" d="M75.11,40.56s1.57-6.43,1.63-7.85a3,3,0,0,0-4-3.05c-1.53.61-3.3,13.32-1,14.85C73.84,45.89,75.11,40.56,75.11,40.56Z"/><path class="cls-19" d="M76.94,52.8c-1.75-2-6.33-8.76-6.28-10.82.06-2.22,3-1.81,4.62.67,1,1.6,4.4,7.08,5.22,8.63.19.37-.66,1.13-1.25,1.43C79.23,52.72,77.45,53.38,76.94,52.8Z"/><path class="cls-18" d="M70,50.86a7.68,7.68,0,0,1,.44,1.7c-.21.76-2.71,1.54-3.68,1.3-.14,0-.32-.23-.13-.58s1.51-1.08,1.26-1.67S70,50.86,70,50.86Z"/><path class="cls-19" d="M68.78,39.45s3.49-5.63,4-7a3,3,0,0,0-2.89-4.15c-1.65.11-7.3,11.06-5.56,13.23C65.9,43.54,68.78,39.45,68.78,39.45Z"/><path class="cls-19" d="M66.72,51.66c-1-2.44-3.3-10.3-2.6-12.24.74-2.1,3.45-.78,4.18,2.06.47,1.85,2,8.1,2.28,9.83.07.42-1,.87-1.63,1C68.93,52.28,67,52.36,66.72,51.66Z"/><path class="cls-20" d="M73.88,32.55c.11.69.48,2.43,1.48,2.24.14,0,.12-.25,0-.22-.84.16-1.16-1.45-1.26-2,0-.14-.24-.12-.21,0Z"/><path class="cls-21" d="M69.44,21.63c.68-1.84,4-1.11,6.25-.65,1.53.3,2.36,1.05,2.15,3.85-.08,1.11-.17,4.48-.79,6.15-.11.31-.57.56-.82.76-1.44,1.16-8.82-.44-8.44-2.15A31.3,31.3,0,0,1,69.44,21.63Z"/><path class="cls-16" d="M75.29,18.46s-2.37.39-2.25.59-.13.57-.15.95a2.16,2.16,0,0,1-.7,1.21c-.27.28.16.64.56.74,1.71.41,2.83-.19,2.49-.76A3,3,0,0,1,75.29,18.46Z"/><path class="cls-22" d="M72.89,20c0-.38.27-.75.15-.95s2.44-.62,2.44-.62a1.82,1.82,0,0,0-.5,1,4.65,4.65,0,0,1-2.4,1.36A3.14,3.14,0,0,0,72.89,20Z"/><path class="cls-16" d="M73.06,15.64c-1,.65-1.87,3-1,4.22.51.66,2.47.08,3.44-1.25a2.92,2.92,0,0,0,0-2.31A1.89,1.89,0,0,0,73.06,15.64Z"/><path class="cls-23" d="M71.9,17.49c0,.15.28-1.45,1.18-1.52.37,0,.27.36.7.41s1.49-.63,1,1.52c0,.1.07.23.11.32s-.14.38-.14.5.39-.24.37-.11-.37.7-.1.78.78-.95,1-1.95c0-.26.32-1.26.34-1.48.06-.46-2.18-1.27-3.19-1.31-.59,0-.46.78-.68,1.28A4.17,4.17,0,0,0,71.9,17.49Z"/><path class="cls-16" d="M74.49,18.42s.7-.55,1.06-.36-.21,1.16-1,1S74.28,18.57,74.49,18.42Z"/><path class="cls-23" d="M72.85,15.5a.31.31,0,1,1-.62,0,.31.31,0,0,1,.33-.29A.3.3,0,0,1,72.85,15.5Z"/><path class="cls-23" d="M73.54,14.85a.6.6,0,0,1-.61.56.59.59,0,1,1,.61-.56Z"/><path class="cls-23" d="M74.58,15.36a.79.79,0,1,1,.06-1.12A.79.79,0,0,1,74.58,15.36Z"/><path class="cls-23" d="M75.69,15.08a.56.56,0,0,1-.59.53.55.55,0,0,1-.53-.58.56.56,0,0,1,1.12.05Z"/><path class="cls-23" d="M76.76,15.83a.7.7,0,1,1-.66-.73A.69.69,0,0,1,76.76,15.83Z"/><path class="cls-23" d="M76.74,16.66a.5.5,0,1,1-.48-.53A.5.5,0,0,1,76.74,16.66Z"/><path class="cls-23" d="M76.4,17.14a.5.5,0,1,1-1-.05.5.5,0,0,1,1,.05Z"/><path class="cls-23" d="M72.49,15.94a.31.31,0,0,1-.33.3.31.31,0,0,1-.31-.33.32.32,0,0,1,.64,0Z"/><path class="cls-23" d="M76.4,17.78a.42.42,0,1,1-.4-.45A.43.43,0,0,1,76.4,17.78Z"/><path class="cls-24" d="M74,18l0,0a.32.32,0,0,1-.09,0c-.13,0-.2,0-.25-.15s-.13,0-.1.05a.35.35,0,0,0,.55.14C74.1,18,74,18,74,18Z"/><path class="cls-24" d="M72.69,17.73a.34.34,0,0,1-.09.08c-.12.08-.21,0-.27-.1s-.14,0-.1.05a.3.3,0,0,0,.35.19.47.47,0,0,0,.21-.16c0-.06-.05-.12-.1-.06Z"/><path class="cls-22" d="M72.43,17.09a.34.34,0,0,1,.44.18c0,.08.16,0,.12-.07a.48.48,0,0,0-.6-.25c-.09,0,0,.17,0,.14Z"/><path class="cls-22" d="M73.61,17.41a.35.35,0,0,1,.47.06c.06.06.16,0,.09-.1a.48.48,0,0,0-.64-.08.07.07,0,0,0,.08.12Z"/><path class="cls-22" d="M73.11,17.57a.59.59,0,0,1,0,.39c0,.18-.25.27-.36.42s0,.32.26.39c.06,0,.09-.06,0-.08-.56-.14.09-.44.17-.68a.73.73,0,0,0,0-.46c0-.05-.11,0-.1,0Z"/><path class="cls-25" d="M73.32,19.1s0,.37-.27.38a.35.35,0,0,1-.35-.32Z"/><path class="cls-22" d="M74.26,18.85a.26.26,0,0,1-.34.18.28.28,0,0,1-.18-.34.28.28,0,0,1,.34-.18A.27.27,0,0,1,74.26,18.85Z"/><path class="cls-22" d="M72.05,18.3a.28.28,0,1,1,.36.42.28.28,0,0,1-.36-.42Z"/><path class="cls-20" d="M69.23,31.77c-.37.55-1.34,1.9-2.13,1.35-.11-.07,0-.25.1-.18.65.46,1.54-.8,1.85-1.26.07-.11.25,0,.18.09Z"/><path class="cls-16" d="M79.58,27c.1.27,2,2.8,1.58,3.68-.28.63-2.48.29-2.48.29s.56-.78-1.2-2.67C76,26.75,79.58,27,79.58,27Z"/><path class="cls-16" d="M81.05,31c-.77,1.4-4.5,4.41-4.5,4.41l-.13-1,3.09-4.53S81.82,29.56,81.05,31Z"/><path class="cls-16" d="M76.45,34A1.36,1.36,0,0,1,76.1,34a2,2,0,0,0-.65,0c-.12,0-.39-.07-.46.07s.38.26.49.3a.27.27,0,0,1,.17.24.28.28,0,0,1-.11.17,4.93,4.93,0,0,1-.51.42l-.26.23a1.24,1.24,0,0,0-.22.18.12.12,0,0,0,0,.17c.06,0,.1,0,.14-.06l.33-.2s.12-.09.15-.08-.12.27-.16.31a.7.7,0,0,0-.25.32.13.13,0,0,0,0,.06s.05,0,.08,0,.28-.21.44-.28.06,0,.08,0,0,.24-.1.31,0,.09,0,.12a.08.08,0,0,0,.09,0l.08,0c.07-.06.15-.1.22-.17s.12-.12.17-.09a0,0,0,0,1,0,0s0,.08,0,.12a.17.17,0,0,0,0,.12.12.12,0,0,0,.15,0,2,2,0,0,0,.44-.38,5.82,5.82,0,0,0,.4-.45c.24-.29.42-.64.68-.91a.69.69,0,0,0,.11-.13.44.44,0,0,0,0-.32.74.74,0,0,0-.36-.48c-.06,0-.18-.09-.24-.06s-.08.11-.11.15l-.14.16A.58.58,0,0,1,76.45,34Z"/><path class="cls-17" d="M75.32,24.12c-.42-1-.45-2.16.42-2.57a2.18,2.18,0,0,1,2,.65,13.6,13.6,0,0,1,3,6.09c.12.86-1.65,2.21-2.58,1.06A22.89,22.89,0,0,1,75.32,24.12Z"/><path class="cls-26" d="M71.82,10.65v-.21A1.94,1.94,0,0,1,72.38,9,1.85,1.85,0,0,0,73,7.91a.69.69,0,0,0-.76-.74,1.41,1.41,0,0,0-.85.22l-.18-.53a2.22,2.22,0,0,1,1.2-.29,1.24,1.24,0,0,1,1.34,1.28A2.3,2.3,0,0,1,73,9.26a1.61,1.61,0,0,0-.52,1.2v.22Zm-.23,1.15a.49.49,0,0,1,.52-.5.49.49,0,0,1,.47.54.5.5,0,0,1-.52.5A.49.49,0,0,1,71.59,11.8Z"/><path class="cls-26" d="M77.24,12.23a.37.37,0,1,1,.65.33.36.36,0,0,1-.5.17A.36.36,0,0,1,77.24,12.23Zm.51-.71.06-.14a1.4,1.4,0,0,1,.82-.78,1.29,1.29,0,0,0,.76-.55.5.5,0,0,0-.27-.73,1.06,1.06,0,0,0-.64-.11l0-.41a1.57,1.57,0,0,1,.89.18.9.9,0,0,1,.51,1.26A1.69,1.69,0,0,1,79,11a1.23,1.23,0,0,0-.72.65l-.06.14Z"/><path class="cls-26" d="M78.34,17.41a.68.68,0,0,1,1,0,.72.72,0,1,1-1,0Zm1.35-.94.21-.23a2.66,2.66,0,0,1,1.95-.87,2.56,2.56,0,0,0,1.71-.51,1,1,0,0,0,0-1.49,2,2,0,0,0-1.07-.6l.33-.71a3,3,0,0,1,1.49.88,1.71,1.71,0,0,1,.11,2.58,3.11,3.11,0,0,1-2.15.68,2.32,2.32,0,0,0-1.7.71l-.21.21Z"/></g></g></svg>