<svg xmlns="http://www.w3.org/2000/svg" viewBox="0 0 60.68 49.27"><defs><style>.cls-1{fill:#f0f8ff;}.cls-2{fill:#cc8b6e;}.cls-3{fill:#39bfb1;}.cls-4{fill:#8b482a;}.cls-5{fill:#53424d;}.cls-6{fill:#2ca899;}.cls-7{fill:#1e100c;}.cls-8{fill:#552b19;}.cls-9{fill:#faffff;}.cls-10{fill:#c1775d;}.cls-11{fill:#f9b8bf;}.cls-12{fill:#618bf0;}.cls-13{fill:#e7f4fa;}.cls-14{fill:#908dce;}.cls-15{fill:#fbb433;}</style></defs><g id="Layer_2" data-name="Layer 2"><g id="Layer_1-2" data-name="Layer 1"><path class="cls-1" d="M15.58,49.27S-4,29.73.74,22.05c5.52-8.92,14.65,0,14.65,0Z"/><path class="cls-1" d="M15.58,49.27S7,3.49,25.09.5C50.41-3.69,44.91,20,44.91,20s6.62-4.75,12.9.38c8.71,7.13-5.19,28.88-5.19,28.88Z"/><path class="cls-2" d="M25.41,12.73a3.73,3.73,0,0,0,.23-.76,4.08,4.08,0,0,1,.76-1.26c.16-.22.26-.87.62-.87.57,0,.11,1.05.09,1.3a.57.57,0,0,0,.31.59.67.67,0,0,0,.46,0,11.78,11.78,0,0,0,1.37-.59l.72-.28a2.75,2.75,0,0,1,.59-.25.27.27,0,0,1,.3.27c0,.15-.17.17-.28.23l-.73.46c-.05,0-.31.15-.32.22,0,.34.67,0,.79,0a1.48,1.48,0,0,1,.9-.14.17.17,0,0,1,.11.06c0,.06,0,.13-.08.17-.32.23-.71.35-1,.59a.19.19,0,0,0-.09.16c0,.25.55.15.71.13s.24,0,.3.07a.17.17,0,0,1,0,.19.41.41,0,0,1-.17.12,4.11,4.11,0,0,1-.56.27c-.1,0-.38.11-.37.24a.18.18,0,0,0,0,.07.64.64,0,0,0,.28.05.27.27,0,0,1,.25.13c0,.11-.06.22-.16.29a4.41,4.41,0,0,1-1.22.47,12.35,12.35,0,0,1-1.33.34,15.78,15.78,0,0,1-1.81.26,2.38,2.38,0,0,1-1.59-.27,2.54,2.54,0,0,1-.69-.83.86.86,0,0,1,0-.61.25.25,0,0,1,0-.07l.1,0a5.53,5.53,0,0,0,.81-.16A1.48,1.48,0,0,0,25.41,12.73Z"/><path class="cls-2" d="M11.91,15.16c-1.06.33-3.49,1.59-3.28,3s3.41,2.68,7.62,1.66,10.47-5,10.47-5l-1-2.25S15.26,14.11,11.91,15.16Z"/><path class="cls-3" d="M21.51,27.22c1.46-4.67,8.48-4.91,14.18-4,3.85.58,6.33,1.83,6.76,6.64.27,3.06-.33,15.86-2.21,19.41H18.81S18.4,37.19,21.51,27.22Z"/><path class="cls-2" d="M35.08,17s-5.88,1.26-5.55,1.74-.24,1.45-.26,2.38a5.29,5.29,0,0,1-1.6,3.12c-.63.72.5,1.58,1.5,1.77,4.31.81,7-.8,6.12-2.2C33.24,20.65,35.08,17,35.08,17Z"/><path class="cls-4" d="M29.27,21.1c0-.93.59-1.9.26-2.38s6-1.84,6-1.84a4.5,4.5,0,0,0-1.13,2.46c-1.76,2.39-4.27,3.12-5.87,3.74A4.62,4.62,0,0,0,29.27,21.1Z"/><path class="cls-2" d="M29.17,10.2C26.85,12,24.88,18,27.3,20.86c1.33,1.58,6.17-.1,8.44-3.54a7.43,7.43,0,0,0-.19-5.79C35,10.27,31.57,8.38,29.17,10.2Z"/><path class="cls-5" d="M26.5,15c0,.37.52-3.65,2.78-3.92.92-.11.71.86,1.78.94.91.06,3.64-1.77,2.59,3.66,0,.26.2.57.32.8s-.32.95-.31,1.27.94-.64.93-.33c0,.47-.85,1.79-.17,2,.33.09.73-.44,1-.62a11,11,0,0,0,2-1.5,5.2,5.2,0,0,0,1.16-2.58,4.91,4.91,0,0,0-.24-2.79,3.55,3.55,0,0,0-2.12-1.93,15.74,15.74,0,0,1-1.7-.46c-.47-.23-1-.29-1.44-.52a2,2,0,0,1-.76-.72,2.77,2.77,0,0,0-2.24-1.07,2.29,2.29,0,0,0-2,1.4c-.17.45-.23,1-.67,1.24-.16.08-.34.09-.49.18a.85.85,0,0,0-.31.39,3.76,3.76,0,0,0-.2,2.58A3.47,3.47,0,0,1,26.59,14,7.61,7.61,0,0,0,26.5,15Z"/><path class="cls-2" d="M33.08,17s1.67-1.47,2.59-1.05-.37,2.93-2.27,2.59S32.57,17.37,33.08,17Z"/><path class="cls-6" d="M39.05,33H34.82l.2-.19c-.1,1.31-.06,4,1.53,4.4s2.49-1,2.56-2.31a5.87,5.87,0,0,0-.26-2,.2.2,0,0,1,.39-.11c.59,1.93.28,5.11-2.45,4.9-2.11-.17-2.29-3.26-2.17-4.84a.19.19,0,0,1,.2-.2h4.23A.2.2,0,0,1,39.05,33Z"/><path class="cls-6" d="M23.53,31.77l4.39.48a.2.2,0,0,1,.2.2c0,1.88-.6,5.06-3.09,4.77s-2.24-3.53-1.69-5.31c.07-.24.46-.14.38.11a6.2,6.2,0,0,0-.21,3.46,1.87,1.87,0,0,0,2.38,1.28,2.72,2.72,0,0,0,1.53-2c.18-.64.16-1.3.29-1.94a2,2,0,0,0,0-.35c-.07.55.35.07.06.18a1.17,1.17,0,0,1-.37,0l-3.88-.42C23.28,32.14,23.28,31.74,23.53,31.77Z"/><path class="cls-7" d="M31.32,16.31l-.06,0-.22.05c-.29,0-.42-.17-.49-.41s-.29-.07-.25.08a.77.77,0,0,0,1.17.46c.15-.08,0-.28-.15-.21Z"/><path class="cls-7" d="M28.63,15.34a1.07,1.07,0,0,1-.25.16c-.28.12-.44-.06-.54-.31s-.31-.07-.24.08c.12.3.33.57.7.51a1.09,1.09,0,0,0,.53-.28c.12-.11-.08-.27-.2-.16Z"/><path class="cls-8" d="M28.17,14a.77.77,0,0,1,.91.53c.07.19.35.06.28-.13a1.06,1.06,0,0,0-1.24-.71c-.2,0-.15.35.05.31Z"/><path class="cls-8" d="M30.65,15.08a.78.78,0,0,1,1,.26c.11.16.35,0,.23-.2a1.06,1.06,0,0,0-1.39-.34c-.18.09,0,.37.13.28Z"/><path class="cls-4" d="M29.6,15.12a1.58,1.58,0,0,1-.06.86c-.16.38-.63.51-.91.81s-.08.72.44.93c.13.05.22-.11.09-.16-1.19-.48.31-.95.55-1.44a1.62,1.62,0,0,0,.1-1c0-.11-.23-.1-.21,0Z"/><path class="cls-9" d="M28,19.16s.26-1,1.11-.77a1,1,0,0,1,.63,1.22Z"/><path class="cls-10" d="M31.74,18.27a.6.6,0,0,1-.8.29.59.59,0,0,1-.29-.8.6.6,0,0,1,1.09.51Z"/><path class="cls-10" d="M26.87,16.23a.61.61,0,1,1-.19.85A.62.62,0,0,1,26.87,16.23Z"/><path class="cls-2" d="M21.27,30.63s-15-10-12.51-12.9,15.42,8.19,15.42,8.19Z"/><path class="cls-3" d="M25.32,29.75c-3.58,4.62-12.43-4.85-12.43-4.85L16.84,20S29.58,24.27,25.32,29.75Z"/><path class="cls-2" d="M50.91,16.27c1,.47,3.26,2,2.86,3.41s-3.72,2.21-7.77.66-9.73-6.28-9.73-6.28L37.56,12S47.73,14.79,50.91,16.27Z"/><path class="cls-2" d="M39.62,30.39s16.19-8,14.09-11.16-16.35,6.11-16.35,6.11Z"/><path class="cls-3" d="M35.72,29c3,5.05,13-3.19,13-3.19L45.4,20.41S32.21,23,35.72,29Z"/><path class="cls-2" d="M37.36,11.83a3.3,3.3,0,0,1-.3-.73,4,4,0,0,0-.86-1.19c-.18-.19-.34-.83-.69-.8-.57,0,0,1,0,1.28a.57.57,0,0,1-.25.6.8.8,0,0,1-.46,0c-.49-.12-1-.32-1.42-.48-.24-.09-.49-.16-.74-.23a2.23,2.23,0,0,0-.6-.2.26.26,0,0,0-.28.28c0,.15.18.15.3.21l.76.39c.06,0,.33.13.34.2.07.33-.67.07-.78,0a1.53,1.53,0,0,0-.92-.07.11.11,0,0,0-.09.07c0,.06,0,.12.09.15.34.21.74.3,1.06.52a.17.17,0,0,1,.11.14c0,.25-.53.18-.7.18s-.24,0-.29.09a.2.2,0,0,0,.05.19.64.64,0,0,0,.18.1,6,6,0,0,0,.59.23c.09,0,.38.07.38.21a.08.08,0,0,1,0,.06.53.53,0,0,1-.28.07.26.26,0,0,0-.23.14c0,.12.08.22.18.28a4.52,4.52,0,0,0,1.25.38q.67.15,1.35.24a15.75,15.75,0,0,0,1.82.13,2.32,2.32,0,0,0,1.55-.37,2,2,0,0,0,.31-.34,2.17,2.17,0,0,0,.31-.53.8.8,0,0,0,0-.59.18.18,0,0,0,0-.07.38.38,0,0,0-.1,0,7.35,7.35,0,0,1-.82-.1A1.47,1.47,0,0,1,37.36,11.83Z"/><path class="cls-2" d="M42.86,32.22a5.52,5.52,0,0,0-1.75-1.4.75.75,0,0,1-.45-.14c-.43-.25-.81-.57-1.22-.86-.2-.15-.42-.29-.64-.43s-.34-.31-.52-.36a.26.26,0,0,0-.35.19c0,.15.12.2.22.29l.62.59s.27.22.27.29c0,.34-.67-.12-.77-.18a1.5,1.5,0,0,0-.86-.33s-.09,0-.11,0,0,.13,0,.18c.26.29.62.49.87.79a.21.21,0,0,1,.06.18c-.1.23-.57,0-.73,0s-.23-.07-.3,0a.17.17,0,0,0,0,.19.41.41,0,0,0,.14.15,4.78,4.78,0,0,0,.5.39c.08,0,.35.18.3.31s0,0-.06,0a.45.45,0,0,1-.28,0c-.1,0-.22,0-.27.08s0,.23.09.32a4.68,4.68,0,0,0,1.09.72c.4.22.81.43,1.23.61a15.33,15.33,0,0,0,1.71.64,2.41,2.41,0,0,0,1.61.07,1.77,1.77,0,0,0,.4-.24,2,2,0,0,0,.45-.43.76.76,0,0,0,.17-.58.19.19,0,0,0,0-.08s-.06,0-.09-.06a5.13,5.13,0,0,1-.76-.33A1.43,1.43,0,0,1,42.86,32.22Z"/><path class="cls-2" d="M51.72,35.66c1,.55-2.23,4.34-3.71,3.48A43.7,43.7,0,0,1,41.12,34l1.47-2A60.24,60.24,0,0,1,51.72,35.66Z"/><polygon class="cls-11" points="44.7 31.71 41.38 35.66 48.84 41.16 52.75 35.2 44.7 31.71"/><path class="cls-2" d="M18.06,39.71a5.81,5.81,0,0,1,2-1.07.67.67,0,0,0,.46,0A13.85,13.85,0,0,0,21.86,38c.23-.12.47-.21.71-.31a2.72,2.72,0,0,1,.58-.26.27.27,0,0,1,.31.25c0,.15-.16.18-.27.24l-.72.48s-.31.16-.32.23c0,.34.68,0,.79,0a1.5,1.5,0,0,1,.9-.17c.05,0,.09,0,.11.06s0,.13-.08.17c-.31.24-.69.37-1,.62,0,0-.1.1-.08.16.05.26.55.13.72.11s.24,0,.29.06a.17.17,0,0,1,0,.2.48.48,0,0,1-.16.12,5,5,0,0,1-.56.29c-.09,0-.37.12-.35.25a.07.07,0,0,0,0,.06.71.71,0,0,0,.29,0,.27.27,0,0,1,.25.11c0,.12-.06.23-.16.3a4.59,4.59,0,0,1-1.2.52c-.43.14-.87.27-1.32.37a15.61,15.61,0,0,1-1.79.32,2.38,2.38,0,0,1-1.6-.22,2.59,2.59,0,0,1-.35-.31,2.48,2.48,0,0,1-.37-.5.84.84,0,0,1-.06-.6.2.2,0,0,1,0-.08l.1,0a4.54,4.54,0,0,0,.81-.19A1.38,1.38,0,0,0,18.06,39.71Z"/><path class="cls-2" d="M8.73,41.48c-1.05.37,1.41,4.67,3,4.1a43.31,43.31,0,0,0,7.7-3.78l-1.08-2.21A60.89,60.89,0,0,0,8.73,41.48Z"/><polygon class="cls-12" points="16.34 38.87 18.89 43.36 10.56 47.41 7.79 40.85 16.34 38.87"/><circle class="cls-13" cx="38.44" cy="29.1" r="2.89"/><path class="cls-14" d="M38.44,31.62A2.53,2.53,0,1,1,41,29.1,2.52,2.52,0,0,1,38.44,31.62Zm0-4.61a2.09,2.09,0,1,0,2.08,2.09A2.09,2.09,0,0,0,38.44,27Z"/><path class="cls-14" d="M38.05,28.33a.31.31,0,0,1-.31.31.3.3,0,0,1-.3-.31.29.29,0,0,1,.3-.3A.3.3,0,0,1,38.05,28.33Z"/><path class="cls-14" d="M39.37,28.33a.3.3,0,0,1-.3.31.31.31,0,0,1-.31-.31.3.3,0,0,1,.31-.3A.29.29,0,0,1,39.37,28.33Z"/><path class="cls-14" d="M39.57,30.49a1.65,1.65,0,0,0-1.07-.78,1.63,1.63,0,0,0-1.3.67l-.32-.3a2,2,0,0,1,1.66-.81,2.12,2.12,0,0,1,1.42,1Z"/><path class="cls-13" d="M19.92,38.09a3.19,3.19,0,1,0,3.19-3.19A3.18,3.18,0,0,0,19.92,38.09Z"/><path class="cls-15" d="M20.33,38.09a2.78,2.78,0,1,1,2.78,2.78A2.78,2.78,0,0,1,20.33,38.09Zm.49,0a2.29,2.29,0,1,0,2.29-2.3A2.3,2.3,0,0,0,20.82,38.09Z"/><path class="cls-15" d="M23.55,37.24a.33.33,0,1,0,.33-.33A.34.34,0,0,0,23.55,37.24Z"/><path class="cls-15" d="M22.08,37.24a.34.34,0,1,0,.67,0,.34.34,0,0,0-.67,0Z"/><path class="cls-15" d="M23.14,39.66h.09a2.29,2.29,0,0,0,1.6-1l-.4-.27a1.87,1.87,0,0,1-1.23.79,1.74,1.74,0,0,1-1.38-.81l-.38.31A2.28,2.28,0,0,0,23.14,39.66Z"/><path class="cls-2" d="M17.89,39.68a2.42,2.42,0,0,1,1.42-1.21c.92-.19,1.42-.94,1.74-.68s.16.51-.29.94c-.66.65-.93,1.2-.74,1.56S17.88,41.25,17.89,39.68Z"/><path class="cls-2" d="M43,32.23a2.42,2.42,0,0,0-1.18-1.45c-.87-.36-1.22-1.18-1.58-1s-.25.48.11,1c.54.76.7,1.35.45,1.67S42.76,33.77,43,32.23Z"/><path class="cls-15" d="M21.06,7l0-.37a3.22,3.22,0,0,1,.87-2.43,3.08,3.08,0,0,0,1-1.92c0-.72-.45-1.19-1.33-1.21a2.47,2.47,0,0,0-1.42.44L19.79.63a3.69,3.69,0,0,1,2-.56,2.08,2.08,0,0,1,2.35,2.06,3.83,3.83,0,0,1-1.21,2.45,2.77,2.77,0,0,0-.8,2.06V7Zm-.31,2a.84.84,0,1,1,1.67,0,.84.84,0,1,1-1.67,0Z"/><path class="cls-15" d="M53.69,29.64l0-.28a2.53,2.53,0,0,1,.68-1.92,2.44,2.44,0,0,0,.78-1.52c0-.56-.36-.94-1.05-1a2,2,0,0,0-1.12.34l-.27-.69a2.9,2.9,0,0,1,1.59-.45,1.64,1.64,0,0,1,1.85,1.63,3,3,0,0,1-1,1.93,2.22,2.22,0,0,0-.63,1.63v.28Zm-.24,1.56a.65.65,0,0,1,.66-.7.69.69,0,1,1-.66.7Z"/><path class="cls-15" d="M7.9,33.24l0-.29A2.51,2.51,0,0,1,8.56,31a2.44,2.44,0,0,0,.78-1.52c0-.57-.36-.94-1.05-.95a2,2,0,0,0-1.12.34l-.27-.7a3,3,0,0,1,1.58-.44,1.63,1.63,0,0,1,1.85,1.63,3,3,0,0,1-.95,1.92A2.2,2.2,0,0,0,8.75,33v.29Zm-.25,1.55a.66.66,0,0,1,.67-.7.7.7,0,0,1,0,1.39A.65.65,0,0,1,7.65,34.79Z"/><path class="cls-15" d="M44.3,10.63v-.18a1.58,1.58,0,0,1,.43-1.2,1.55,1.55,0,0,0,.49-1c0-.35-.22-.59-.66-.6a1.3,1.3,0,0,0-.71.22l-.16-.44a1.78,1.78,0,0,1,1-.28,1,1,0,0,1,1.16,1,1.9,1.9,0,0,1-.59,1.21,1.37,1.37,0,0,0-.4,1v.18Zm-.15,1a.42.42,0,1,1,.41.43A.41.41,0,0,1,44.15,11.61Z"/></g></g></svg>