<svg xmlns="http://www.w3.org/2000/svg" viewBox="0 0 69.86 55.27"><defs><style>.cls-1{fill:#f0f8ff;}.cls-2{fill:#969924;}.cls-3{fill:#c2c23c;}.cls-4{fill:#56a9ff;}.cls-5{fill:#fbb433;}.cls-6{fill:#8f9843;}.cls-7{fill:#479bda;}.cls-8{fill:#85c2f6;}.cls-9{fill:#ffabcc;}.cls-10{fill:#fff;}.cls-11{fill:#cc8b6e;}.cls-12{fill:#ff4650;}.cls-13{fill:#fce6d9;}.cls-14{fill:#feb801;}.cls-15{fill:#fdfefd;}.cls-16{fill:#d94951;}.cls-17{fill:#c1775d;}.cls-18{fill:#53424d;}.cls-19{fill:#1e100c;}.cls-20{fill:#faffff;}.cls-21{fill:#fbcfda;}</style></defs><g id="Layer_2" data-name="Layer 2"><g id="Layer_1-2" data-name="Layer 1"><path class="cls-1" d="M16.37,54.33S5.65,8.28,25.29,5.14C48.48,1.43,45.5,27.69,45.5,27.69s9.77-10.2,16.56-4.64C71.48,30.76,56,54.72,56,54.72Z"/><path class="cls-1" d="M16.66,54.59S-4.33,32.76.81,24.45c6-9.65,15.85,0,15.85,0Z"/><path class="cls-2" d="M22.88,40.91s-3.81.35-3.67-3.5S18.4,31.76,15,29.65s-3.93-4.42-3.32-7.22S6.12,18,8.11,15.23C11.3,10.81,9.4,9,7.13,7.68,4.59,6.22,3.32,2.49,6.68,2.1s6.48,4.48,7,6.72,1.18,4.32,5,5S23.8,16.14,24.81,19s.33,2.94,4,6.1Z"/><path class="cls-3" d="M31.71,36.73c-5.79-2.81-20-23.85-20.09-24.06l.15-.1c.14.21,14.27,21.22,20,24Z"/><path class="cls-3" d="M18.09,22.1a2.92,2.92,0,0,1-2.19-.35l.07-.16c1.07.5,1.85.56,2.31.2.78-.6.47-2.19.46-2.21l.18,0c0,.07.33,1.72-.53,2.39A1.11,1.11,0,0,1,18.09,22.1Z"/><path class="cls-3" d="M14.63,17.29A2.91,2.91,0,0,1,12.44,17l.08-.17c1.07.5,1.84.57,2.31.2.77-.59.46-2.19.46-2.21l.17,0c0,.07.34,1.72-.52,2.39A1.14,1.14,0,0,1,14.63,17.29Z"/><path class="cls-3" d="M12.57,14.54a2.93,2.93,0,0,1-2.19-.36l.07-.16c1.07.5,1.85.57,2.31.2.78-.6.47-2.19.46-2.21l.18,0c0,.07.33,1.72-.53,2.38A1.49,1.49,0,0,1,12.57,14.54Z"/><path class="cls-3" d="M16.54,19.91a2.41,2.41,0,0,1-1.83-.29l.08-.16c.88.41,1.52.47,1.9.17.63-.49.38-1.8.37-1.82l.18,0c0,.06.28,1.43-.44,2A.82.82,0,0,1,16.54,19.91Z"/><path class="cls-3" d="M19.86,24.46a3,3,0,0,1-2.19-.35l.08-.16c1.06.5,1.84.56,2.31.2.77-.6.46-2.2.46-2.21l.17,0c0,.07.33,1.72-.52,2.39A1.17,1.17,0,0,1,19.86,24.46Z"/><path class="cls-3" d="M21.72,27.33a3,3,0,0,1-2.2-.35l.08-.16c1.07.49,1.85.56,2.31.2.77-.6.46-2.19.46-2.21l.17,0c0,.07.34,1.72-.52,2.39A1.11,1.11,0,0,1,21.72,27.33Z"/><path class="cls-3" d="M23.5,29.25A2.11,2.11,0,0,1,21.92,29l.08-.16c.75.35,1.29.39,1.61.15.54-.42.32-1.54.32-1.55l.18,0s.24,1.23-.39,1.71A.61.61,0,0,1,23.5,29.25Z"/><path class="cls-4" d="M27,8.38h.15a24.34,24.34,0,0,0-1.93-6.1l-.14.07A24.46,24.46,0,0,1,27,8.38Z"/><path class="cls-4" d="M28.36,8.44a25,25,0,0,1,2.4-5.88l-.13-.07a24.47,24.47,0,0,0-2.42,5.92Z"/><path class="cls-4" d="M30.3,2.42A.48.48,0,1,0,30.79,2,.48.48,0,0,0,30.3,2.42Z"/><path class="cls-4" d="M24.68,2.06a.48.48,0,0,0,.46.5.49.49,0,0,0,.5-.46.48.48,0,0,0-.46-.49A.47.47,0,0,0,24.68,2.06Z"/><path class="cls-5" d="M27.37,11.17c1.82.15,5.88-4.93,3.67-6.26,0,0-1-.76-2.25,1.88,0,0,.66-3.59-.88-3.76s-1.28,3.57-1.09,4c0,0-.72-3.33-2.49-2.43C22.29,5.69,25.52,11,27.37,11.17Z"/><path class="cls-6" d="M28.81,10.61a2.1,2.1,0,0,0-2.75-.15S27.27,12.86,28.81,10.61Z"/><path class="cls-6" d="M27.9,10.57a7.3,7.3,0,0,0,1.55-2.74l-.11,0a7.53,7.53,0,0,1-1.52,2.68Z"/><path class="cls-6" d="M27.27,10.81l.1-.08a7.23,7.23,0,0,1-.95-2.93l-.12,0A7.41,7.41,0,0,0,27.27,10.81Z"/><path class="cls-2" d="M28,17.47l.21-.11c-1.09-2.18-.7-6.46-.7-6.5l-.24,0C27.24,11,26.86,15.23,28,17.47Z"/><path class="cls-6" d="M27.12,11l.08-.09a4.58,4.58,0,0,1-.95-1.69l-.12,0A4.88,4.88,0,0,0,27.12,11Z"/><path class="cls-6" d="M27.63,10.42A5.09,5.09,0,0,0,28,8.26h-.12a5.18,5.18,0,0,1-.37,2.11Z"/><rect class="cls-7" x="22.74" y="0.04" width="0.48" height="33.37" transform="translate(-4.57 9.75) rotate(-21.85)"/><path class="cls-8" d="M22,14.69s2.16-3.71.51-4c-1.34-.25-1.32,1.76-1.27,2.15A13.79,13.79,0,0,0,22,14.69Z"/><path class="cls-8" d="M22.08,14.74s-4.25-1-3.36-2.37c.72-1.13,2.22.25,2.47.55A13.19,13.19,0,0,1,22.08,14.74Z"/><path class="cls-8" d="M20.54,10.89s2.34-3.61.71-4C19.92,6.6,19.84,8.6,19.87,9A14.43,14.43,0,0,0,20.54,10.89Z"/><path class="cls-8" d="M20.6,11s-4.2-1.18-3.24-2.53c.78-1.09,2.2.36,2.44.67A13.69,13.69,0,0,1,20.6,11Z"/><path class="cls-8" d="M19,7s2.34-3.61.71-4c-1.33-.3-1.41,1.7-1.37,2.09A13.29,13.29,0,0,0,19,7Z"/><path class="cls-8" d="M19.1,7S14.9,5.85,15.86,4.5c.78-1.08,2.2.36,2.44.67A13.69,13.69,0,0,1,19.1,7Z"/><path class="cls-8" d="M17.84,3.66S14.38,1.11,15.77.18c1.13-.76,1.91,1.09,2,1.47A13.13,13.13,0,0,1,17.84,3.66Z"/><path class="cls-3" d="M31.67,38.38s-10,2.56-11.38.17-.56-6-4.59-7.54S9.4,26.41,8,27.63c-1.8,1.59.51,3.82,3,5.74a6.33,6.33,0,0,1,2.5,6.52c-.63,3.76,3.82,3.87,4.75,8.29C18.67,50,23.19,55,31,49.48Z"/><path class="cls-2" d="M31.55,49.27C27.9,49,16.46,40.9,16.34,40.82l.06-.09c.12.09,11.54,8.18,15.17,8.44Z"/><path class="cls-2" d="M21.54,44.43a1.77,1.77,0,0,1-1.26.27l0-.1c.67,0,1.1-.09,1.29-.38.31-.48-.14-1.25-.14-1.26l.08-.05s.49.83.14,1.36A.65.65,0,0,1,21.54,44.43Z"/><path class="cls-2" d="M18.8,42.62a1.75,1.75,0,0,1-1.25.28v-.1c.67,0,1.11-.09,1.29-.38.32-.48-.14-1.26-.14-1.26l.09-.06s.49.84.14,1.37A.5.5,0,0,1,18.8,42.62Z"/><path class="cls-2" d="M17.19,41.6a1.76,1.76,0,0,1-1.26.28l0-.1c.67,0,1.1-.09,1.29-.38.31-.48-.14-1.26-.14-1.26l.08-.06s.49.84.14,1.37A.61.61,0,0,1,17.19,41.6Z"/><path class="cls-2" d="M20.31,43.6a1.47,1.47,0,0,1-1,.23v-.1c.55,0,.91-.07,1.07-.31.25-.39-.12-1-.12-1l.09-.06s.4.7.11,1.14A.69.69,0,0,1,20.31,43.6Z"/><path class="cls-2" d="M22.92,45.3a1.74,1.74,0,0,1-1.25.28v-.11c.67,0,1.1-.09,1.29-.38.32-.47-.14-1.25-.14-1.26l.09,0s.49.83.14,1.36A.7.7,0,0,1,22.92,45.3Z"/><path class="cls-2" d="M24.44,46.42a1.75,1.75,0,0,1-1.25.28v-.1c.67,0,1.11-.09,1.29-.38.32-.48-.14-1.26-.14-1.26l.09-.06s.48.83.14,1.37A1,1,0,0,1,24.44,46.42Z"/><path class="cls-2" d="M25.76,47.06a1.34,1.34,0,0,1-.91.2l0-.1q.7,0,.9-.27c.22-.33-.1-.87-.1-.88l.09,0s.35.6.1,1A1.27,1.27,0,0,1,25.76,47.06Z"/><path class="cls-9" d="M40.76,26C46.34,36.74,46,48,40,51.11s-15.44-3-21-13.7-5.22-21.94.8-25.08S35.18,15.33,40.76,26Z"/><path class="cls-9" d="M54.08,37.69C48.25,48.26,38.7,54.17,32.75,50.89S26.7,36.38,32.53,25.8,47.92,9.32,53.87,12.6,59.91,27.11,54.08,37.69Z"/><path class="cls-10" d="M35.15,40.78a1.93,1.93,0,0,1-.22.83l3.76.14A.26.26,0,0,0,39,41.5l.38-10.95a.25.25,0,0,0-.24-.26l-3.58-.12c0,.08,0,.16,0,.25a1.91,1.91,0,0,1-3.82-.13,1,1,0,0,1,0-.25l-3.59-.13a.25.25,0,0,0-.26.24l-.12,3.57a1.91,1.91,0,0,0-.14,3.81L27.5,41.1a.24.24,0,0,0,.24.26l3.77.13a1.82,1.82,0,0,1-.17-.85,1.91,1.91,0,1,1,3.81.14Z"/><path class="cls-10" d="M43.13,27.14a2,2,0,0,1-.84-.21l0,3.77a.25.25,0,0,0,.25.25l10.95.14a.24.24,0,0,0,.26-.24l0-3.59H53.5a1.91,1.91,0,1,1,0-3.82l.25,0,0-3.59a.24.24,0,0,0-.24-.25L50,19.59a1.91,1.91,0,0,0-3.82-.05l-3.57-.05a.25.25,0,0,0-.25.25l0,3.77a1.7,1.7,0,0,1,.84-.19,1.91,1.91,0,1,1,0,3.82Z"/><path class="cls-11" d="M53.76,26.25s3.48.22,4.78-.94a2,2,0,0,0,.54-2.45s-3.65,1.88-5.59,1.58S53.76,26.25,53.76,26.25Z"/><path class="cls-12" d="M60.48,21.79a2.1,2.1,0,0,1,2.52.49A1.55,1.55,0,0,1,62.61,24a7.39,7.39,0,0,1-4.5,1.88c-.81.06-2.32-1.55-1.32-2.31A11.34,11.34,0,0,1,60.48,21.79Z"/><polygon class="cls-13" points="66.75 38.57 58.47 32.5 58.63 31.26 66.51 30.64 66.75 38.57"/><path class="cls-14" d="M58.71,52.73s-.32.38-.7.9-.65,1.07-.13,1.32,1.16-.36,1.37-.73.44-.32.72-.56.13-1.14.13-1.14Z"/><path class="cls-13" d="M63.51,35.58c-.76,1-3.31,17.18-3.31,17.18-.76.66-1.91,0-1.91,0-.83-8.25.2-20.5.2-20.5s5.79,4.32,5,3.32Z"/><path class="cls-14" d="M66.33,53s.32.39.69.91.66,1.07.13,1.32-1.16-.37-1.36-.73-.44-.32-.72-.56-.14-1.14-.14-1.14Z"/><path class="cls-13" d="M61.52,35.84c.77,1,3.31,17.18,3.31,17.18.77.67,1.92,0,1.92,0,.82-8.25-.08-21.25-.08-21.25s-5.91,5.08-5.15,4.07Z"/><path class="cls-12" d="M59.57,23c.55-1.81,3.16-1.9,5.28-1.56,1.44.22,2.24,1.2,2.25,3,0,1.16.09,6-.61,7.4,0,0-2.39,1.84-7.91-.38A30.09,30.09,0,0,1,59.57,23Z"/><path class="cls-15" d="M63.64,22.13A79.41,79.41,0,0,1,63,31.89l-.68,0a45.11,45.11,0,0,0,.77-9.8Z"/><path class="cls-16" d="M63.47,23.23a.16.16,0,0,0,0-.22.15.15,0,0,0-.23.2A.16.16,0,0,0,63.47,23.23Z"/><path class="cls-16" d="M63.47,24.66a.16.16,0,0,0,0-.22.15.15,0,0,0-.21,0,.15.15,0,1,0,.2.23Z"/><path class="cls-16" d="M63.41,25.93a.15.15,0,1,0-.23.2.15.15,0,0,0,.23-.2Z"/><path class="cls-16" d="M63,27.65a.15.15,0,1,0,.21,0A.15.15,0,0,0,63,27.65Z"/><path class="cls-16" d="M62.9,29.64a.15.15,0,0,0,0,.21.14.14,0,0,0,.21,0,.15.15,0,0,0,0-.21A.15.15,0,0,0,62.9,29.64Z"/><path class="cls-11" d="M64.73,19.09s-2.15.46-2,.64-.09.53-.1.87A1.9,1.9,0,0,1,62,21.74c-.23.26.18.58.54.65,1.58.29,2.58-.3,2.24-.81A2.7,2.7,0,0,1,64.73,19.09Z"/><path class="cls-17" d="M62.6,20.6c0-.34.22-.7.1-.87s2.2-.67,2.2-.67a1.65,1.65,0,0,0-.42.9,6.58,6.58,0,0,1-2,1.13A1.2,1.2,0,0,0,62.6,20.6Z"/><path class="cls-11" d="M62.56,16.62c-.84.64-1.56,2.84-.68,3.89.49.58,2.26,0,3.09-1.29a2.77,2.77,0,0,0-.07-2.12A1.74,1.74,0,0,0,62.56,16.62Z"/><path class="cls-18" d="M62.15,17c.19.09.42-.21.65-.09s.21.29.46.31,1.33-.64.94,1.34c0,.1.07.21.12.29s-.16.34-.06.49.08,0,.1,0,0,.16,0,.21,0,.33,0,.49c.22,0,.38-.2.51-.38a8.15,8.15,0,0,0,.71-.93,1.1,1.1,0,0,0,0-1.11,2.12,2.12,0,0,1-.27-.34,1.18,1.18,0,0,1-.06-.53,1.26,1.26,0,0,0-.23-.76,1.49,1.49,0,0,0-.88-.47,3.09,3.09,0,0,0-1-.12,1.46,1.46,0,0,0-.94.44.94.94,0,0,0-.2,1,.19.19,0,0,0,.07.11Z"/><path class="cls-11" d="M64,19.09s.61-.53.94-.38-.13,1.07-.83.94S63.81,19.24,64,19.09Z"/><path class="cls-19" d="M63.66,18.72h0l-.08,0c-.12,0-.17-.07-.2-.16s-.11,0-.09,0a.3.3,0,0,0,.45.18c.06,0,0-.11-.05-.08Z"/><path class="cls-19" d="M62.6,18.34l-.09.06c-.12.05-.18,0-.22-.12s-.12,0-.09,0a.25.25,0,0,0,.27.2.43.43,0,0,0,.21-.11s0-.11-.08-.06Z"/><path class="cls-19" d="M62.42,17.82a.3.3,0,0,1,.36.21c0,.07.14,0,.11-.05a.41.41,0,0,0-.49-.28c-.08,0-.06.13,0,.12Z"/><path class="cls-19" d="M63.39,18.23a.3.3,0,0,1,.4.11c.05.06.14,0,.1-.08a.43.43,0,0,0-.55-.14c-.07,0,0,.15,0,.11Z"/><path class="cls-17" d="M63,18.25a.66.66,0,0,1,0,.34c-.06.15-.25.2-.36.31s0,.28.18.37c0,0,.08,0,0-.06-.47-.19.12-.38.22-.57a.61.61,0,0,0,0-.4s-.09,0-.08,0Z"/><path class="cls-20" d="M63.16,19.52s0,.42-.36.38-.34-.41-.34-.41Z"/><path class="cls-17" d="M63.82,19.48a.24.24,0,0,1-.31.12.25.25,0,0,1-.12-.32.25.25,0,0,1,.32-.11A.24.24,0,0,1,63.82,19.48Z"/><path class="cls-17" d="M61.91,18.69a.24.24,0,1,1-.07.33A.24.24,0,0,1,61.91,18.69Z"/><path class="cls-21" d="M54.49,37.18a2.14,2.14,0,0,0,.28,1l-4.53.16a.29.29,0,0,1-.31-.29l-.47-13.17a.32.32,0,0,1,.3-.31l4.31-.15a1.51,1.51,0,0,0,0,.3,2.3,2.3,0,1,0,4.59-.16c0-.1,0-.2,0-.3l4.32-.15a.3.3,0,0,1,.31.29l.15,4.29a2.29,2.29,0,0,1,.16,4.58l.15,4.3a.31.31,0,0,1-.29.31L58.88,38a2.33,2.33,0,0,0,.2-1,2.3,2.3,0,1,0-4.59.16Z"/><path class="cls-11" d="M67.94,25.68c.11.26,2.33,3.05,1.84,4.25-.26.62-2.37-.22-2.37-.22s.76-.81-1.16-2.51C64.66,25.8,67.94,25.68,67.94,25.68Z"/><path class="cls-11" d="M69.61,30.19c-1,1.21-5.06,3.45-5.06,3.45l0-1.15,3.84-3.68S70.59,29,69.61,30.19Z"/><path class="cls-11" d="M64.28,32.55a1.26,1.26,0,0,1-.33-.1,1.8,1.8,0,0,0-.65-.09c-.12,0-.38-.14-.48,0s.34.33.43.39a.24.24,0,0,1,.12.27.32.32,0,0,1-.13.15,4.83,4.83,0,0,1-.59.32l-.3.17c-.07,0-.19.08-.24.14a.11.11,0,0,0,0,.18c.05,0,.1,0,.15,0l.36-.13s.14-.07.17,0-.18.24-.22.27a.66.66,0,0,0-.3.27.07.07,0,0,0,0,.06s0,0,.08,0,.32-.15.49-.2.06,0,.08,0-.1.23-.15.28-.08.08-.06.12a.09.09,0,0,0,.08,0l.09,0,.25-.12s.14-.11.18-.07a.06.06,0,0,1,0,0,.17.17,0,0,1-.06.11.13.13,0,0,0,0,.12c0,.05.09,0,.14,0a2,2,0,0,0,.51-.3c.16-.11.32-.24.48-.37a6.89,6.89,0,0,0,.56-.52,4.47,4.47,0,0,0,.44-.43.46.46,0,0,0,0-.41c-.05-.13-.14-.25-.2-.37s-.07-.14-.16-.15a4.07,4.07,0,0,0-.65.37Z"/><path class="cls-12" d="M64.92,24.48c-.38-1-.36-2.11.5-2.48a2.1,2.1,0,0,1,1.92.71,8.92,8.92,0,0,1,2.18,4.95c.08.83-1.69,2.08-2.56.92A13.75,13.75,0,0,1,64.92,24.48Z"/></g></g></svg>